<?xml version="1.0" standalone="no"?>
<!DOCTYPE svg PUBLIC "-//W3C//DTD SVG 20010904//EN"
 "http://www.w3.org/TR/2001/REC-SVG-20010904/DTD/svg10.dtd">
<svg version="1.0" xmlns="http://www.w3.org/2000/svg"
 width="225.000000pt" height="225.000000pt" viewBox="0 0 225.000000 225.000000"
 preserveAspectRatio="xMidYMid meet">

<g transform="translate(0.000000,225.000000) scale(0.100000,-0.100000)"
fill="#000000" stroke="none">
<path d="M636 1825 c-128 -118 -237 -222 -240 -231 -3 -9 -6 -224 -6 -479 l0
-464 26 -20 c24 -19 40 -21 173 -21 l146 0 0 -179 c0 -162 2 -181 19 -200 19
-21 23 -21 547 -21 l528 0 15 22 c14 20 16 102 16 693 0 368 -4 675 -8 681
-18 27 -56 34 -194 34 l-143 0 0 179 c0 162 -2 181 -19 200 -19 20 -27 21
-322 21 l-304 0 -234 -215z m754 -45 l0 -140 -77 0 c-57 0 -85 -5 -104 -18
-54 -35 -462 -417 -470 -440 -5 -13 -9 -118 -9 -233 l0 -209 -105 0 -105 0 0
360 0 360 214 0 c211 0 215 0 230 22 13 19 16 58 16 230 l0 208 205 0 205 0 0
-140z m-540 -65 l0 -125 -140 0 -140 0 136 125 c75 69 138 125 140 125 2 0 4
-56 4 -125z m880 -795 l0 -590 -432 2 -433 3 -3 358 -2 357 208 0 c172 0 211
3 230 16 22 15 22 19 22 230 l0 214 205 0 205 0 0 -590z m-530 390 l0 -130
-140 0 c-77 0 -140 3 -139 8 0 4 58 59 129 122 71 63 129 118 130 123 0 4 5 7
10 7 6 0 10 -50 10 -130z"/>
</g>
</svg>
