<?xml version="1.0" standalone="no"?>
<!DOCTYPE svg PUBLIC "-//W3C//DTD SVG 20010904//EN"
 "http://www.w3.org/TR/2001/REC-SVG-20010904/DTD/svg10.dtd">
<svg version="1.0" xmlns="http://www.w3.org/2000/svg"
 width="744.000000pt" height="744.000000pt" viewBox="0 0 744.000000 744.000000"
 preserveAspectRatio="xMidYMid meet">

<g transform="translate(0.000000,744.000000) scale(0.100000,-0.100000)"
fill="#000000" stroke="none">
<path d="M2350 7106 c0 -19 -46 -23 -52 -5 -3 8 -10 6 -20 -5 -9 -9 -23 -16
-32 -16 -8 0 -18 -4 -21 -10 -10 -16 -28 -11 -21 6 5 12 2 15 -10 10 -8 -3
-20 -6 -25 -6 -6 0 -8 -4 -5 -9 4 -5 3 -16 0 -25 -5 -13 -9 -14 -20 -5 -8 6
-23 9 -34 6 -11 -3 -20 -2 -20 3 0 16 -35 20 -87 10 -35 -8 -53 -16 -53 -26 0
-8 -4 -13 -8 -10 -4 2 -14 0 -22 -5 -12 -7 -12 -11 -2 -17 10 -7 10 -15 2 -36
-5 -15 -8 -32 -5 -37 4 -5 -1 -6 -10 -3 -12 5 -13 9 -4 20 10 12 8 13 -6 8
-15 -6 -17 -3 -13 14 4 12 2 20 -3 16 -5 -3 -7 -27 -5 -54 5 -51 -2 -60 -46
-60 -16 0 -19 -5 -15 -26 3 -18 1 -24 -9 -20 -7 3 -16 1 -19 -5 -4 -5 -10 -7
-15 -4 -4 3 -11 -2 -14 -11 -3 -8 -10 -13 -15 -9 -5 3 -12 1 -16 -5 -10 -16
-45 -12 -45 5 0 10 -10 15 -31 15 -24 0 -30 -4 -25 -16 5 -12 1 -14 -17 -8
-12 3 -26 10 -32 14 -5 5 -38 8 -73 7 -58 -2 -64 0 -87 28 l-24 30 -1 -25 c-1
-14 -4 -19 -7 -12 -6 14 -39 16 -48 2 -3 -5 -26 -10 -50 -10 -24 0 -47 5 -50
10 -3 6 1 10 9 10 21 0 20 10 -3 38 -11 12 -30 22 -45 22 -13 0 -28 5 -31 10
-3 6 -25 10 -49 10 -23 0 -47 5 -52 10 -6 6 -37 11 -70 12 -32 0 -63 4 -69 8
-16 13 -105 -13 -106 -30 0 -10 -3 -9 -8 4 -5 12 -10 16 -14 9 -4 -6 -4 -19 0
-29 5 -14 2 -16 -15 -12 -12 4 -25 2 -28 -3 -3 -5 -13 -5 -24 1 -13 7 -21 7
-25 0 -4 -7 -12 -7 -25 0 -10 6 -38 12 -61 15 -37 5 -40 4 -29 -10 14 -17 3
-20 -19 -6 -10 6 -25 4 -43 -5 -34 -18 -36 -26 -5 -24 48 4 57 0 57 -25 0 -14
-4 -25 -10 -25 -5 0 -10 -7 -10 -16 0 -10 6 -14 15 -11 8 4 17 2 20 -2 2 -5
-7 -12 -21 -15 -27 -7 -57 17 -50 39 2 6 -2 19 -10 30 -14 18 -14 18 -15 -1
-1 -10 -1 -25 0 -32 1 -8 -3 -20 -10 -29 -10 -12 -10 -16 1 -23 7 -4 10 -15 7
-23 -4 -11 1 -17 16 -20 18 -4 17 -5 -5 -6 -18 -1 -28 4 -28 13 0 8 -7 17 -16
20 -24 9 -26 8 -15 -12 6 -10 8 -28 5 -39 -6 -22 9 -38 26 -28 8 5 7 11 -1 21
-9 12 -5 14 29 14 43 0 116 -26 108 -39 -3 -4 5 -16 17 -27 l22 -19 -51 -5
c-28 -3 -58 -10 -65 -16 -8 -7 -25 -15 -39 -19 -21 -7 -23 -6 -13 7 19 22 -3
37 -43 31 -25 -4 -35 -2 -40 11 -3 9 -11 16 -16 16 -5 0 -18 10 -29 23 l-18
22 -1 -30 c0 -23 -3 -27 -10 -15 -8 13 -10 12 -10 -2 0 -10 -5 -18 -10 -18 -6
0 -20 -10 -32 -22 -20 -20 -20 -22 -4 -34 13 -9 14 -13 4 -17 -8 -4 -7 -6 5
-6 24 -1 22 -43 -4 -59 -15 -9 -24 -10 -33 -3 -9 8 -29 8 -66 1 -28 -5 -56 -8
-60 -5 -5 3 -11 1 -15 -5 -3 -5 -15 -10 -26 -10 -10 0 -19 -7 -19 -15 0 -8 6
-15 14 -15 17 0 16 -42 -1 -48 -7 -2 -16 3 -19 12 -8 22 -26 9 -19 -14 4 -11
-1 -20 -12 -25 -15 -6 -13 -9 12 -19 28 -12 29 -13 7 -18 -12 -3 -22 -2 -22 3
0 5 -4 9 -10 9 -13 0 -13 -87 0 -95 5 -3 10 -11 10 -16 0 -6 -5 -7 -10 -4 -7
4 -10 -693 -10 -2083 l0 -2089 31 -1 c28 -1 59 16 59 33 0 3 13 19 30 35 16
16 30 38 30 50 0 11 4 20 10 20 5 0 9 -3 8 -7 0 -5 3 -19 9 -33 10 -24 10 -24
17 -4 5 16 13 20 30 17 19 -4 23 -10 21 -36 -1 -18 4 -41 12 -53 13 -20 12
-23 -6 -29 -21 -6 -29 -25 -12 -25 17 0 -14 -49 -32 -52 -10 -2 -18 -7 -18
-13 0 -5 -9 -13 -20 -17 -21 -8 -24 -31 -10 -90 8 -35 8 -36 -16 -32 -34 6
-63 -4 -63 -23 0 -9 5 -33 11 -53 10 -34 17 -39 64 -53 29 -8 64 -12 79 -10
19 4 26 1 26 -11 0 -9 5 -16 10 -16 6 0 20 -16 31 -35 12 -19 26 -32 32 -28 7
4 8 0 3 -13 -4 -10 -14 -55 -22 -98 -8 -44 -15 -80 -17 -80 -1 -1 -36 -12 -77
-26 -41 -13 -95 -34 -120 -46 -25 -11 -57 -24 -72 -28 l-28 -6 0 -503 c1 -451
2 -499 16 -474 8 15 17 27 21 27 3 0 3 -3 0 -6 -10 -10 13 -45 24 -38 6 3 8
17 5 31 -5 16 -1 30 11 41 16 16 17 16 10 0 -4 -12 -2 -18 9 -18 8 0 13 4 10
9 -3 5 4 12 17 16 14 4 17 8 9 12 -8 3 6 17 34 35 25 17 48 37 51 45 3 8 13
11 24 8 18 -6 59 13 59 27 0 5 -9 8 -21 8 -11 0 -18 4 -14 9 3 5 21 7 40 4 28
-4 35 -2 35 11 0 9 7 16 15 16 11 0 12 -5 5 -25 -6 -16 -6 -27 2 -31 7 -4 8
-3 4 4 -4 8 3 16 18 22 14 5 26 15 26 21 0 29 64 52 73 27 4 -11 7 -11 18 0 7
6 29 12 49 12 37 0 69 14 58 25 -3 4 2 15 13 26 10 10 19 25 19 33 0 7 13 19
29 26 19 8 37 28 52 60 16 33 35 55 60 70 21 11 43 34 51 50 7 17 19 30 26 30
7 0 15 7 18 15 4 8 14 15 23 15 10 0 30 14 46 30 40 41 76 40 94 -3 7 -17 25
-57 39 -87 14 -30 25 -58 24 -61 -1 -4 8 -15 18 -24 11 -10 20 -26 20 -35 0
-9 3 -20 7 -24 11 -10 12 -36 2 -36 -5 0 -9 -8 -9 -19 0 -10 -7 -24 -15 -31
-19 -16 -19 -30 1 -30 10 0 12 -4 7 -13 -4 -6 -8 -21 -9 -32 -2 -44 -16 -150
-20 -156 -2 -4 -7 -34 -10 -66 -4 -32 -10 -62 -14 -68 -4 -5 -7 -22 -6 -37 1
-16 -2 -28 -7 -28 -5 0 -4 -6 2 -13 14 -17 2 -30 -14 -17 -9 8 -14 4 -19 -16
-4 -14 -5 -29 -1 -32 3 -3 5 2 5 12 0 9 4 15 10 11 5 -3 18 3 30 15 11 11 21
20 23 20 7 0 -6 -61 -14 -66 -5 -3 -9 -14 -9 -24 0 -10 -6 -21 -12 -23 -10 -4
-10 -6 -1 -6 9 -1 10 -8 3 -26 l-10 -25 80 0 c74 0 79 1 82 23 2 12 9 21 16
19 7 -1 12 8 12 23 0 18 -4 23 -15 19 -9 -4 -15 0 -15 10 0 9 8 16 18 16 13 0
14 2 3 9 -7 5 -11 13 -7 19 6 10 15 66 21 132 2 19 4 35 5 35 1 0 2 22 4 48 3
53 -7 68 -26 37 -16 -25 -27 -26 -23 -2 2 9 4 20 4 25 1 4 8 7 16 7 9 0 12 6
9 15 -4 8 -1 15 5 15 7 0 23 12 36 26 14 15 25 23 25 19 0 -4 6 -2 14 4 11 9
21 2 48 -36 35 -48 52 -82 50 -95 -1 -4 7 -10 18 -13 11 -4 20 -10 20 -15 0
-6 15 -25 32 -43 59 -61 88 -97 88 -107 0 -5 5 -10 10 -10 6 0 10 -7 10 -15 0
-8 5 -15 10 -15 6 0 10 -6 10 -13 0 -18 24 -67 33 -67 4 0 7 -11 7 -24 0 -13
6 -28 13 -35 11 -8 13 -5 12 17 -1 15 -5 33 -9 40 -4 7 -1 12 8 12 9 0 16 -3
16 -7 0 -5 14 -23 31 -41 22 -24 39 -32 64 -32 39 0 57 19 26 27 -12 3 -21 10
-21 17 0 6 -17 31 -38 55 -20 24 -39 53 -42 65 -3 11 -11 22 -18 22 -7 1 -17
2 -24 3 -6 0 -9 4 -5 7 3 4 0 13 -8 21 -19 19 -19 34 0 27 8 -4 15 -1 15 4 0
10 -32 25 -55 27 -5 0 -10 7 -10 16 0 9 -8 24 -18 33 -9 10 -17 24 -17 32 0 8
-4 12 -10 9 -6 -3 -10 4 -10 17 0 18 2 20 10 8 6 -9 10 -10 10 -3 0 17 -23 29
-28 15 -2 -7 -8 -12 -13 -12 -6 0 -7 5 -4 11 4 6 -2 13 -14 16 -12 3 -21 10
-21 15 0 6 6 8 14 5 14 -5 41 20 41 39 0 6 -7 17 -16 26 -11 12 -20 13 -34 6
-15 -9 -17 -8 -12 5 3 9 2 19 -3 22 -6 4 -10 15 -10 25 0 10 -8 24 -17 29 -12
7 -13 11 -5 11 10 0 9 4 -3 16 -9 9 -13 24 -10 34 4 11 -1 23 -13 32 -14 10
-18 22 -14 51 2 20 8 37 13 37 5 0 9 7 9 15 0 8 -6 15 -12 15 -9 0 -8 4 2 10
10 6 11 10 3 10 -20 0 -15 37 5 45 16 6 16 7 -1 17 -13 7 -27 6 -48 -2 -16 -7
-32 -10 -36 -7 -3 4 2 9 11 13 9 3 16 15 16 25 0 10 7 19 15 19 8 0 15 8 15
19 0 22 23 44 36 33 5 -4 0 4 -11 18 -11 13 -27 30 -35 37 -13 12 -13 13 0 11
8 -2 22 -11 31 -21 15 -16 19 -16 32 -3 17 17 27 11 27 -16 0 -10 7 -18 15
-18 8 0 15 -7 15 -15 0 -8 5 -15 10 -15 6 0 10 -7 10 -15 0 -8 4 -15 9 -15 5
0 11 -8 15 -17 11 -36 47 -88 57 -85 6 1 9 -3 7 -9 -2 -7 8 -24 22 -38 28 -28
130 -177 130 -189 0 -5 14 -21 31 -38 17 -16 49 -55 71 -86 23 -32 45 -58 49
-58 5 0 9 -7 9 -15 0 -8 5 -15 10 -15 6 0 10 -6 10 -14 0 -8 16 -38 35 -67 19
-29 32 -56 29 -60 -2 -4 0 -10 5 -14 6 -3 8 -12 4 -20 -3 -9 2 -26 11 -40 14
-22 15 -25 1 -25 -8 0 -15 -7 -15 -16 0 -8 5 -12 10 -9 10 6 11 3 13 -37 1
-13 6 -28 12 -35 5 -7 16 -19 23 -28 10 -12 28 -15 65 -13 l52 3 1 60 c1 32 6
61 10 62 5 2 8 23 6 47 -2 26 2 55 12 74 13 26 14 31 1 36 -20 7 -45 -20 -45
-49 0 -13 -4 -26 -8 -29 -10 -6 -42 29 -42 47 0 7 -9 18 -20 24 -10 7 -22 28
-25 47 -5 22 -15 37 -31 45 -13 6 -23 14 -22 18 3 14 -14 43 -22 38 -7 -5 -25
42 -22 57 1 4 -7 10 -18 13 -11 4 -20 14 -20 23 0 9 -14 31 -30 49 -17 18 -33
46 -36 63 -4 17 -10 33 -15 36 -4 2 -6 11 -3 19 4 9 -3 19 -18 25 -24 11 -55
66 -44 77 3 4 -1 14 -9 23 -9 10 -19 35 -22 56 -3 22 -15 47 -26 57 -11 9 -15
17 -9 17 7 0 12 5 12 10 0 6 -7 10 -16 8 -10 -2 -19 3 -21 10 -3 6 2 12 11 12
9 0 16 5 16 10 0 6 -6 10 -12 10 -8 0 -13 14 -13 38 -1 39 -24 102 -38 102 -5
0 -5 5 -1 11 3 6 10 42 14 79 5 49 14 75 29 91 13 14 19 30 15 39 -8 20 -16
59 -8 43 8 -18 21 -16 28 3 4 10 -1 26 -11 37 -10 11 -13 17 -7 14 16 -9 24
15 19 56 -4 28 0 36 19 45 13 6 30 24 37 41 8 17 17 31 21 31 5 0 8 14 8 30 0
20 5 30 15 30 8 0 15 7 15 15 0 8 6 15 13 15 18 0 87 -66 87 -84 0 -9 7 -12
20 -9 15 4 20 0 20 -16 0 -25 15 -27 37 -6 30 30 47 14 51 -46 3 -66 -12 -89
-59 -89 -19 0 -29 -5 -29 -15 0 -9 6 -12 15 -9 8 4 15 1 15 -5 0 -6 -7 -11
-16 -11 -8 0 -12 -5 -9 -10 3 -6 1 -10 -4 -10 -16 0 -13 -75 5 -145 9 -33 21
-84 28 -114 6 -30 17 -56 23 -58 6 -2 9 -13 6 -23 -3 -11 19 -68 51 -135 31
-64 56 -118 56 -121 0 -3 13 -25 30 -49 17 -24 30 -46 30 -48 0 -7 59 -102
118 -191 28 -43 52 -83 52 -87 0 -5 7 -9 15 -9 8 0 22 -11 31 -25 9 -14 23
-25 30 -25 8 0 18 -8 22 -17 13 -32 66 -117 84 -135 10 -10 18 -24 18 -31 0
-7 16 -26 35 -42 19 -17 35 -35 35 -41 0 -6 11 -21 25 -34 25 -23 25 -23 25
-3 0 12 -5 23 -12 25 -16 6 -1 27 28 38 14 6 24 18 24 30 0 11 5 20 10 20 15
0 31 47 35 103 3 38 0 51 -18 67 -19 18 -20 24 -9 53 14 39 16 70 3 63 -14 -9
-22 36 -9 51 8 10 6 17 -8 28 -18 13 -17 14 11 12 21 -1 30 3 33 16 2 11 -3
17 -15 18 -10 0 -13 3 -5 6 15 6 16 49 2 58 -7 4 -7 11 -2 18 13 17 11 50 -5
65 -15 15 -18 102 -3 102 5 0 13 -8 19 -17 11 -20 27 -10 33 21 5 28 28 32 28
5 l0 -22 26 24 26 24 -26 9 c-31 12 -36 41 -6 33 15 -4 20 0 20 14 0 17 17 25
43 20 5 -1 6 3 2 9 -3 6 3 10 15 10 12 0 28 7 37 15 18 19 45 12 90 -21 17
-13 34 -21 36 -17 8 13 -12 55 -23 48 -5 -3 -10 -1 -10 5 0 19 25 21 64 5 l38
-16 -7 40 c-4 27 -3 41 4 41 6 0 15 9 21 20 9 16 7 24 -5 36 -19 19 -19 24 0
24 8 0 14 -6 12 -12 -1 -9 9 -12 31 -10 18 2 32 -1 32 -8 0 -20 39 9 46 35 3
13 15 27 25 30 20 7 26 25 9 25 -5 0 -10 -4 -10 -10 0 -5 -9 -10 -20 -10 -11
0 -20 7 -20 15 0 8 9 15 19 15 11 0 23 5 26 10 3 6 19 10 36 10 16 0 29 5 29
10 0 6 6 10 14 10 8 0 18 5 22 11 11 19 -21 40 -67 42 -42 2 -46 5 -67 45
l-22 42 25 0 c16 0 25 -6 25 -15 0 -17 25 -20 35 -5 4 6 13 5 25 -2 23 -15 37
-4 22 15 -9 10 -8 18 3 33 14 18 14 18 15 -8 0 -30 14 -37 24 -13 7 19 26 20
26 2 0 -8 -10 -18 -22 -24 -18 -8 -12 -11 43 -25 35 -8 67 -13 72 -11 14 8 -4
23 -29 23 -13 0 -24 4 -24 8 0 5 29 8 65 8 52 0 62 -2 53 -13 -15 -18 21 -18
48 1 11 8 42 18 69 22 28 4 44 9 37 11 -13 5 -7 23 9 23 5 0 8 -12 7 -27 -2
-16 2 -30 7 -32 13 -5 36 -37 34 -48 -6 -35 3 -53 25 -53 14 0 27 4 30 8 3 5
38 14 78 21 40 7 81 17 91 22 19 10 37 4 37 -12 0 -5 -7 -9 -15 -9 -8 0 -15
-4 -15 -10 0 -15 48 -12 75 6 13 8 22 21 19 28 -3 8 4 12 18 12 21 -1 23 4 26
49 2 44 0 48 -12 33 -7 -10 -18 -18 -24 -18 -6 0 -18 -12 -26 -27 -8 -16 -15
-22 -16 -15 0 26 20 51 60 73 22 13 40 26 40 30 0 5 9 13 21 19 19 11 20 9 17
-22 -1 -18 -10 -38 -18 -45 -13 -10 -11 -11 8 -6 17 4 22 1 22 -13 0 -11 3
-15 8 -8 4 6 19 10 35 9 22 -2 27 2 27 22 0 22 -19 31 -34 16 -3 -4 -13 -8
-21 -9 -28 -4 39 66 80 83 l40 16 -30 7 c-28 6 -29 6 -7 14 12 4 22 12 22 17
0 5 7 9 15 9 8 0 15 6 15 14 0 9 7 12 19 9 13 -3 26 5 41 25 13 17 35 36 49
42 26 10 57 47 48 57 -3 2 -31 -9 -62 -26 -32 -17 -62 -28 -67 -25 -5 3 -18
-3 -28 -14 -16 -17 -29 -19 -86 -17 -41 2 -71 9 -76 17 -7 9 -8 6 -5 -9 5 -21
1 -23 -33 -23 -21 0 -45 -7 -54 -15 -19 -20 -46 -19 -46 1 0 14 -9 16 -65 11
-65 -5 -66 -5 -83 27 -15 29 -17 30 -20 9 -2 -15 -10 -23 -23 -23 -10 0 -19
-4 -19 -10 0 -5 -6 -10 -12 -10 -19 1 -58 36 -58 52 1 23 26 48 49 48 12 0 24
7 27 15 4 8 12 15 19 15 17 0 7 47 -11 54 -10 4 -14 -2 -14 -19 0 -13 -5 -27
-11 -31 -15 -9 -69 45 -62 62 4 10 -3 14 -25 14 -34 0 -49 14 -54 50 -2 18
-11 27 -33 31 -16 4 -25 7 -18 8 6 0 9 10 6 21 -5 19 -6 19 -23 -2 -16 -20
-21 -21 -44 -10 -35 15 -31 16 -62 -15 -19 -20 -25 -23 -20 -9 5 13 2 17 -9
12 -9 -3 -15 0 -15 9 0 11 -12 15 -45 15 -31 0 -47 5 -51 15 -4 10 -20 15 -50
15 -26 0 -46 5 -51 14 -12 22 -49 25 -45 4 6 -35 -19 -17 -38 27 -11 25 -26
45 -33 45 -8 0 -22 12 -32 26 -16 25 -17 25 -36 8 -17 -16 -22 -16 -29 -4 -6
8 -10 27 -10 43 0 27 -15 37 -22 15 -3 -8 -13 -5 -33 10 -15 12 -36 22 -46 22
-24 0 -32 16 -19 39 8 16 6 21 -9 26 -11 3 -22 14 -25 23 -3 9 -17 30 -32 45
-21 22 -24 34 -19 59 6 26 5 30 -9 25 -9 -4 -31 4 -51 16 -29 19 -34 27 -33
57 1 19 10 45 21 57 21 24 16 46 -5 25 -16 -16 -31 -15 -25 1 2 6 -4 23 -14
36 -20 25 -25 51 -10 51 11 0 6 42 -9 70 -7 12 -10 35 -6 50 4 21 -1 35 -19
55 -14 14 -25 28 -25 29 0 2 12 7 27 10 25 7 25 8 9 24 -14 15 -18 15 -26 2
-14 -22 -24 13 -14 48 8 31 10 48 12 115 2 39 5 47 21 47 27 0 33 14 19 45 -8
18 -17 25 -30 22 -10 -3 -19 0 -19 6 -1 7 -2 18 -3 25 0 7 -12 18 -25 25 -34
17 -31 31 7 35 30 3 43 16 23 24 -5 2 -13 15 -16 31 -6 20 -4 27 8 27 8 0 18
6 21 13 3 6 3 0 0 -14 -4 -18 -1 -28 10 -32 10 -4 18 5 27 31 7 20 12 41 10
46 -5 20 21 54 37 49 12 -5 14 0 9 28 -5 21 -4 29 2 20 5 -8 16 -11 26 -8 19
8 11 27 -11 27 -16 0 -19 17 -4 22 6 2 4 14 -5 31 -13 26 -13 27 11 27 14 0
27 7 30 15 7 17 34 21 34 5 0 -5 11 -10 24 -10 13 0 29 -7 36 -15 7 -8 19 -15
26 -15 21 0 17 27 -7 43 -19 14 -19 16 -4 48 8 19 22 44 29 57 l13 23 6 -21
c3 -12 10 -19 16 -15 7 3 8 0 5 -9 -4 -10 -1 -16 9 -16 12 0 14 8 10 35 -5 31
-3 35 16 35 24 0 25 4 11 31 -9 15 -7 21 5 25 12 5 13 9 4 20 -17 21 -57 17
-69 -6 -11 -21 -35 -27 -45 -10 -3 6 5 14 19 20 14 5 26 14 26 20 0 5 8 10 19
10 26 0 49 29 32 39 -9 6 -5 13 13 24 18 12 26 13 29 4 4 -9 6 -9 6 1 1 17 41
15 41 -2 0 -19 37 -27 44 -10 3 8 13 14 21 14 9 0 13 4 10 10 -3 6 1 7 9 4 9
-3 16 -2 16 4 0 6 9 8 19 5 13 -3 24 2 33 16 14 23 48 29 48 8 0 -7 -5 -18
-12 -25 -9 -9 -8 -12 6 -12 9 0 14 -4 11 -10 -4 -6 8 -10 29 -10 24 0 39 6 50
21 12 18 21 21 53 16 34 -6 40 -4 54 20 18 28 76 53 125 53 19 0 34 6 38 15 3
8 17 15 31 15 16 0 39 12 57 30 29 29 58 40 58 21 0 -5 12 -8 28 -6 15 2 33 4
40 4 22 2 13 19 -14 25 l-26 7 35 23 c18 13 40 26 48 29 10 4 10 6 2 6 -18 1
-16 31 2 31 8 0 15 -7 15 -16 0 -11 5 -14 16 -10 9 3 20 6 25 6 6 0 7 9 4 20
-4 11 -2 20 4 20 6 0 11 -7 11 -15 0 -8 5 -15 11 -15 5 0 -2 -11 -16 -24 -15
-14 -27 -28 -27 -33 0 -4 -3 -14 -5 -21 -3 -7 -1 -18 5 -25 15 -17 3 -70 -14
-63 -8 3 -14 -1 -14 -9 0 -7 -6 -20 -14 -28 -8 -8 -19 -30 -24 -48 -5 -19 -15
-33 -22 -31 -8 2 -10 -3 -7 -13 4 -9 1 -15 -9 -15 -8 0 -13 -4 -9 -9 3 -5 1
-12 -4 -15 -5 -3 -18 -37 -30 -74 -21 -69 -20 -172 1 -172 5 0 8 -6 7 -12 -2
-7 5 -29 14 -48 10 -19 15 -27 13 -18 -3 11 0 15 9 12 8 -3 11 -12 8 -20 -3
-9 2 -14 16 -14 13 0 25 -9 31 -22 5 -13 9 -19 9 -14 1 5 7 3 15 -3 11 -10 16
-8 20 7 4 11 16 22 26 25 37 10 21 45 -33 72 -25 13 -36 85 -13 85 8 0 18 5
22 12 4 7 3 8 -4 4 -11 -6 -14 3 -11 32 0 4 7 6 15 4 8 -2 14 4 14 13 0 8 4
15 10 15 5 0 9 3 8 8 -3 15 15 42 29 42 8 0 11 5 8 10 -3 6 2 13 12 17 10 3
26 13 35 21 10 8 24 12 33 8 15 -5 31 7 69 55 10 13 25 31 32 39 7 8 15 38 19
67 5 46 3 53 -16 63 -15 9 -18 15 -10 23 6 6 11 26 11 45 0 29 -3 34 -20 29
-19 -5 -20 0 -21 64 0 38 -1 84 -1 102 -1 19 2 42 6 52 3 10 1 24 -5 32 -7 7
-9 16 -6 20 4 3 2 12 -4 20 -9 10 -8 13 1 13 10 0 10 3 0 15 -7 8 -9 15 -4 15
4 0 -4 13 -19 28 -20 21 -24 31 -16 39 7 7 9 19 5 29 -6 15 -8 16 -24 0 -10
-9 -22 -16 -25 -16 -14 0 -7 23 10 36 24 17 8 32 -17 16 -26 -16 -40 -15 -40
2 0 8 -6 17 -12 19 -10 4 -10 6 0 6 7 1 12 14 11 34 l0 32 -16 -37 c-15 -38
-46 -53 -41 -20 2 10 -2 16 -10 14 -10 -2 -12 5 -7 27 3 17 2 32 -4 36 -6 3
-11 18 -11 33 0 21 -2 24 -10 12 -13 -20 -13 -4 0 21 6 11 21 19 35 19 23 0
24 2 13 25 -6 14 -14 22 -17 17 -3 -4 -16 -8 -29 -7 -16 0 -29 12 -45 40 -12
22 -25 42 -28 45 -3 3 -12 16 -19 30 -7 13 -24 33 -37 43 -12 10 -23 25 -23
33 0 8 -5 14 -10 14 -6 0 -20 9 -32 20 -12 10 -25 17 -30 14 -4 -3 -8 5 -8 18
0 13 4 19 8 13 4 -5 25 -19 47 -30 22 -11 63 -39 92 -63 55 -44 73 -42 26 3
-52 49 -144 104 -180 108 -4 0 -14 7 -22 14 -7 8 -19 12 -27 9 -7 -3 -14 0
-16 6 -2 6 -21 12 -41 12 -28 1 -36 5 -32 16 4 8 -4 22 -17 32 -22 16 -23 18
-5 46 9 17 17 38 17 48 0 11 3 14 9 8 6 -5 35 -7 65 -6 49 3 56 6 56 25 0 20
0 20 15 1 13 -17 14 -17 15 -1 0 21 20 23 20 1 0 -8 5 -12 10 -9 6 3 10 19 10
36 0 27 13 39 23 22 2 -5 2 -2 0 6 -2 7 2 20 8 27 7 9 8 14 1 14 -6 0 -12 -5
-14 -12 -3 -8 -7 -9 -11 -2 -9 15 42 74 64 74 12 0 19 7 19 20 0 11 -4 20 -10
20 -5 0 -10 9 -10 20 0 13 5 18 15 14 11 -5 15 1 15 19 0 29 -20 48 -20 20 -1
-24 -26 -57 -39 -49 -6 4 -8 13 -4 22 3 8 2 14 -3 12 -5 -2 -10 2 -11 7 -1 6
5 9 13 7 8 -2 14 4 14 13 0 12 -6 15 -22 11 -13 -3 -17 -3 -10 0 17 8 15 24
-3 24 -8 0 -15 -4 -15 -10 0 -5 -5 -10 -11 -10 -7 0 -5 10 5 25 9 13 16 33 16
44 0 14 8 21 28 24 l27 4 -27 2 c-16 0 -28 6 -28 11 0 6 10 8 24 4 19 -4 26
-1 31 16 8 25 3 32 -28 36 -12 1 -23 3 -25 3 -1 1 5 13 14 27 13 19 24 24 41
21 15 -3 27 1 30 9 3 8 12 14 20 14 8 0 11 5 8 11 -5 7 -14 4 -26 -7 -25 -23
-33 -13 -16 20 12 22 16 24 26 12 8 -9 25 -12 55 -9 41 5 45 3 48 -18 2 -14
11 -25 23 -28 11 -2 24 -9 28 -17 4 -8 19 -14 32 -14 14 0 25 -4 25 -10 0 -5
7 -10 15 -10 11 0 13 -8 8 -32 -4 -22 -3 -29 5 -24 7 4 12 2 12 -3 0 -6 7 -11
15 -11 11 0 15 -11 15 -40 0 -30 4 -40 16 -40 11 0 14 -6 9 -22 -6 -19 -5 -21
6 -10 22 20 34 14 36 -19 3 -38 11 -48 23 -29 11 17 12 15 15 -20 3 -40 9 -53
30 -72 15 -13 16 -17 6 -18 -8 0 1 -12 20 -26 19 -14 33 -30 31 -35 -1 -6 2
-8 8 -4 6 3 8 11 5 16 -4 5 1 9 9 9 11 0 16 -9 16 -26 0 -19 4 -25 15 -20 10
4 15 -1 15 -15 0 -15 5 -19 15 -15 10 3 15 -1 16 -12 0 -11 2 -12 6 -4 4 10 8
10 18 2 8 -6 11 -18 8 -27 -4 -9 1 -19 11 -25 9 -5 14 -14 10 -19 -7 -12 24
-49 42 -49 7 0 15 -8 19 -18 6 -22 48 -45 87 -48 19 -1 25 2 21 12 -3 8 1 14
10 14 8 0 18 -6 20 -12 4 -10 6 -10 6 0 1 18 17 15 45 -12 31 -28 32 -36 6
-36 -11 0 -20 -5 -20 -10 0 -6 -3 -9 -7 -8 -8 1 -28 -5 -68 -22 -11 -5 -38
-15 -60 -22 -41 -13 -59 -25 -101 -65 -13 -13 -26 -23 -30 -23 -10 0 -74 -67
-74 -79 0 -6 -9 -16 -20 -23 -22 -14 -26 -28 -9 -28 13 0 59 46 59 59 0 4 11
14 25 21 14 7 25 17 25 20 0 4 14 13 30 20 17 7 30 16 30 20 0 5 15 12 33 15
17 4 35 12 39 18 4 6 10 9 13 6 10 -10 -59 -70 -87 -76 -15 -3 -25 -10 -22
-15 4 -5 18 -7 33 -3 14 4 31 8 36 9 22 4 75 41 75 53 0 15 46 18 55 3 3 -5 1
-11 -4 -11 -6 -1 -16 -2 -23 -3 -6 0 -13 -7 -16 -14 -2 -7 2 -13 9 -11 37 5
80 -2 74 -12 -4 -6 -13 -8 -21 -5 -7 3 -16 1 -19 -4 -4 -6 -23 -7 -44 -4 -29
5 -42 2 -56 -12 -18 -19 -18 -19 0 -23 11 -2 21 2 23 8 2 6 14 11 28 11 17 0
22 -4 17 -16 -5 -14 -3 -15 15 -5 11 6 37 11 57 11 25 0 35 4 32 13 -5 15 21
36 45 37 9 0 28 -5 42 -11 l25 -12 -20 -26 -21 -26 29 -22 c15 -13 37 -23 47
-23 18 0 18 -1 1 -20 -17 -19 -17 -21 0 -40 10 -12 25 -18 32 -16 7 3 15 1 18
-3 7 -13 -50 -30 -66 -20 -8 5 -20 2 -31 -8 -17 -15 -18 -15 -18 0 0 21 -7 21
-26 2 -19 -19 -34 -19 -34 -1 0 15 -24 28 -34 19 -3 -3 2 -12 12 -19 16 -13
16 -13 0 -14 -10 0 -18 -4 -18 -10 0 -5 -8 -10 -17 -10 -10 0 -14 4 -8 8 22
16 10 62 -17 62 -6 0 -5 -7 2 -15 7 -9 9 -19 5 -23 -4 -4 -10 -1 -12 6 -7 18
-20 15 -26 -8 -3 -11 -13 -20 -22 -20 -9 0 -13 -5 -10 -11 5 -7 -8 -8 -39 -5
-37 5 -50 2 -66 -14 -11 -11 -40 -25 -65 -31 -28 -7 -45 -17 -45 -26 0 -11 7
-14 23 -10 63 15 95 18 101 8 4 -5 13 -8 21 -4 8 3 15 0 15 -6 0 -12 -43 -23
-142 -33 -22 -3 -24 -34 -3 -42 9 -3 32 3 53 14 29 15 45 18 69 11 19 -5 35
-5 40 0 6 6 19 6 34 0 13 -5 18 -10 11 -10 -8 -1 -12 -7 -9 -13 2 -7 0 -23 -4
-35 -8 -20 -5 -23 19 -23 24 -1 25 -2 10 -13 -11 -9 -14 -18 -7 -28 15 -24 10
-49 -10 -49 -10 0 -58 14 -105 31 -48 17 -89 29 -92 27 -2 -2 9 -44 24 -92 25
-80 29 -86 50 -81 20 5 21 3 11 -13 -10 -16 -8 -25 12 -53 13 -19 22 -35 19
-36 -3 -1 3 -12 13 -23 33 -39 17 -43 -18 -4 -19 21 -35 44 -35 51 0 6 -8 18
-18 25 -25 19 -80 145 -91 209 -17 99 -20 153 -12 214 5 34 5 64 0 69 -15 16
-19 3 -23 -74 -2 -43 -8 -76 -15 -78 -6 -2 -11 -10 -11 -18 0 -8 -8 -14 -17
-14 -14 0 -18 8 -17 35 1 41 11 56 24 35 8 -12 10 -11 10 7 0 12 -6 24 -12 26
-8 4 -7 6 3 6 9 1 19 11 23 24 9 36 7 38 -14 17 -11 -11 -24 -20 -30 -20 -5 0
-7 -6 -4 -14 3 -8 0 -17 -7 -22 -9 -5 -11 2 -6 29 3 21 2 37 -3 37 -5 0 -2 12
6 28 7 15 14 39 14 55 0 17 5 27 15 27 8 0 15 -4 15 -8 0 -5 11 -15 25 -22 14
-8 23 -20 21 -27 -10 -25 17 -25 40 0 14 15 20 29 14 32 -15 9 -12 34 5 51 17
17 21 49 5 39 -6 -4 -8 -10 -6 -14 3 -4 -6 -15 -20 -25 -27 -21 -32 -46 -9
-46 8 0 15 -5 15 -11 0 -6 -9 -8 -22 -4 -31 10 -47 26 -30 32 17 6 15 20 -4
27 -8 3 -12 2 -9 -4 10 -16 -12 -12 -29 5 -8 8 -19 15 -25 15 -5 0 -13 5 -17
12 -4 7 -3 8 4 4 7 -4 12 -2 12 3 0 6 -12 11 -27 11 -16 0 -46 2 -68 5 -35 4
-36 3 -10 -4 24 -7 26 -9 8 -10 -24 -1 -43 -21 -19 -21 18 0 78 -59 71 -70 -3
-5 0 -10 6 -12 8 -3 8 -12 -3 -33 -8 -17 -13 -47 -12 -68 0 -21 -3 -40 -8 -43
-5 -3 -4 -12 2 -20 18 -20 8 -40 -10 -22 -23 22 -50 30 -50 13 0 -7 10 -15 23
-17 12 -2 21 -9 19 -16 -1 -8 8 -22 20 -31 21 -17 21 -19 5 -36 -9 -9 -15 -21
-12 -25 7 -11 35 -2 35 11 0 5 4 9 9 9 6 0 11 -17 13 -37 2 -29 7 -37 19 -35
9 1 19 -4 23 -13 3 -8 12 -15 20 -15 9 0 12 -7 9 -19 -2 -10 1 -24 9 -32 7 -8
13 -23 12 -34 0 -18 18 -62 53 -125 8 -14 17 -33 20 -42 3 -10 12 -18 20 -18
9 0 13 -6 10 -14 -3 -8 1 -13 11 -12 9 0 16 -5 15 -11 -2 -7 1 -13 6 -13 5 0
22 -13 39 -28 16 -16 48 -34 71 -42 23 -7 41 -16 41 -20 0 -10 116 -43 128
-36 5 3 28 -1 51 -9 31 -10 41 -11 41 -2 0 7 4 6 10 -3 5 -8 10 -11 10 -5 0 5
5 4 12 -3 17 -17 33 -15 19 2 -9 11 -6 12 16 8 16 -3 31 -10 35 -16 5 -7 8 -5
8 5 0 9 8 20 17 23 19 8 43 -11 28 -22 -6 -4 -11 -16 -13 -27 -2 -18 -1 -18 8
-3 6 10 18 14 32 10 12 -3 19 -1 15 4 -3 6 4 16 16 24 19 11 20 11 11 -1 -17
-21 -24 -62 -15 -78 6 -10 13 -10 29 -2 15 8 21 7 25 -4 4 -9 -4 -17 -21 -24
-26 -9 -26 -9 -3 -10 18 -1 21 -4 12 -14 -14 -17 -2 -30 15 -16 8 7 14 7 19
-1 3 -5 1 -10 -4 -10 -15 0 -14 -19 3 -36 13 -12 15 -12 20 4 2 9 4 4 4 -13
-1 -16 2 -42 6 -57 15 -68 17 -80 6 -73 -5 3 -10 -1 -10 -10 0 -9 4 -13 10
-10 12 8 19 -21 28 -130 10 -128 -10 -483 -34 -588 -8 -34 -16 -78 -19 -98 -4
-38 -27 -119 -50 -179 -8 -19 -18 -51 -24 -70 -30 -113 -98 -266 -152 -348
-16 -24 -29 -47 -29 -53 0 -5 -11 -21 -25 -35 -14 -14 -23 -30 -20 -35 4 -5 0
-9 -8 -9 -8 0 -29 -16 -46 -35 -17 -19 -38 -35 -46 -35 -9 0 -14 -4 -11 -9 3
-4 -8 -20 -24 -34 -25 -23 -29 -24 -33 -9 -3 10 -5 7 -6 -9 -1 -28 -31 -50
-31 -23 0 8 -5 12 -11 9 -6 -4 -8 -13 -5 -20 5 -14 -24 -45 -42 -45 -7 0 -12
-8 -12 -17 0 -11 -3 -14 -8 -7 -4 6 -17 14 -29 18 -18 6 -23 3 -23 -11 0 -13
3 -14 8 -5 5 7 9 -8 10 -38 1 -58 7 -71 27 -63 8 3 15 0 15 -6 0 -6 -7 -12
-15 -12 -8 -1 -19 -3 -25 -4 -5 -1 -14 -3 -20 -4 -5 0 -10 -5 -10 -10 0 -5 9
-7 21 -4 18 5 20 1 19 -38 0 -24 1 -63 3 -86 3 -30 -1 -48 -12 -59 -11 -12
-15 -31 -13 -66 3 -30 0 -48 -7 -48 -6 0 -11 -8 -11 -18 0 -11 -9 -27 -19 -36
-11 -10 -17 -23 -15 -30 3 -7 -2 -19 -11 -26 -8 -7 -15 -19 -15 -26 0 -8 -4
-14 -8 -14 -4 0 -16 -15 -27 -32 -10 -18 -21 -35 -25 -38 -3 -3 -21 -25 -40
-50 -18 -25 -48 -59 -67 -76 -18 -17 -33 -35 -33 -41 0 -13 -247 -263 -260
-263 -6 0 -10 -6 -11 -12 0 -7 -21 -31 -47 -52 -26 -21 -74 -63 -107 -92 -65
-57 -155 -130 -190 -154 -12 -8 -48 -33 -81 -54 -118 -78 -259 -180 -267 -193
-4 -7 -15 -13 -22 -13 -8 0 -15 -4 -15 -9 0 -13 -117 -67 -175 -81 -121 -28
-141 -34 -150 -41 -5 -4 -21 -9 -35 -12 -14 -2 161 -5 389 -5 344 -1 421 2
450 14 19 8 38 18 41 23 3 4 23 14 45 21 22 7 47 15 55 18 8 3 22 6 30 8 8 2
16 8 18 13 2 6 18 11 35 11 18 0 49 9 70 20 20 11 42 20 48 20 6 0 25 6 42 14
18 8 64 27 102 41 72 27 80 31 198 84 37 17 78 33 92 37 14 3 28 10 31 15 3 5
13 9 23 9 20 0 117 49 363 182 42 23 80 49 114 77 7 6 27 18 45 28 67 37 139
85 139 92 0 4 21 23 48 42 50 36 160 143 202 197 14 17 31 32 38 32 7 0 10 4
7 10 -3 5 14 30 39 54 29 27 46 53 46 68 0 18 2 20 10 8 8 -12 10 -11 10 6 0
15 8 24 25 28 15 4 25 14 25 24 0 9 9 23 20 30 11 7 20 20 20 30 0 10 8 25 18
34 23 23 37 41 38 53 3 28 18 55 30 55 17 0 37 37 30 55 -3 8 -1 17 4 20 6 4
10 15 10 26 0 10 10 29 21 40 15 15 18 23 9 29 -8 5 -7 9 4 13 10 4 13 13 9
23 -4 11 -2 15 4 11 14 -9 45 56 37 76 -3 8 2 21 10 30 9 9 16 23 16 31 0 9 5
16 10 16 6 0 10 12 10 27 0 14 3 23 7 20 3 -4 12 6 20 20 9 18 11 29 4 31 -13
4 -14 49 -2 57 5 3 9 19 9 36 -1 17 4 34 11 38 6 4 9 15 5 25 -4 10 1 25 11
36 10 11 13 20 7 20 -7 0 -11 11 -10 25 1 14 8 25 15 25 7 0 10 -7 7 -17 -5
-15 -4 -16 5 -3 6 8 8 27 5 42 -6 31 4 35 38 17 20 -11 20 -11 2 20 -10 17
-24 29 -30 27 -22 -9 -44 32 -39 75 2 23 7 44 11 48 4 3 4 -3 1 -14 -7 -19 -6
-19 7 -2 16 21 33 22 52 2 14 -13 17 -13 30 -1 8 8 13 20 12 27 -2 6 3 14 10
16 7 3 12 -3 12 -14 0 -11 -6 -25 -12 -32 -11 -10 -10 -14 5 -22 21 -12 23
-33 2 -25 -22 8 -18 -2 6 -15 17 -9 23 -8 30 2 6 10 9 6 9 -12 0 -15 7 -30 16
-33 10 -4 14 -14 11 -26 -3 -11 -1 -22 4 -25 4 -3 6 -12 2 -20 -3 -8 -1 -15 4
-15 12 0 65 61 58 68 -3 3 2 16 10 28 14 21 13 25 -7 44 -12 11 -16 20 -10 20
18 0 14 37 -4 44 -9 3 -27 6 -40 6 -13 0 -24 5 -24 10 0 6 5 10 10 10 6 0 10
7 10 16 0 9 -7 14 -17 12 -13 -2 -19 -14 -21 -41 -2 -20 -7 -37 -13 -37 -5 0
-7 16 -5 35 4 29 1 35 -14 35 -13 0 -17 5 -14 15 5 11 0 14 -20 13 -14 -1 -26
-5 -26 -9 0 -4 -9 -9 -20 -12 -31 -8 -28 56 5 91 14 15 26 36 27 47 2 36 -2
59 -14 66 -12 8 57 25 80 21 6 -2 12 1 12 6 0 5 12 14 26 20 14 7 22 17 19 22
-4 6 -3 10 2 9 26 -5 50 3 50 16 0 18 1 18 -32 5 -24 -9 -25 -8 -15 11 9 15
19 19 43 17 28 -3 32 -6 29 -28 l-3 -25 25 25 c13 14 41 36 60 50 36 26 48 44
21 34 -11 -5 -14 2 -14 27 1 19 1 44 0 56 -1 27 -42 73 -65 73 -9 0 -16 5 -16
10 0 17 35 47 50 42 9 -3 11 1 7 12 -4 10 -1 16 8 16 16 0 30 18 21 27 -3 4
-17 -4 -31 -17 -20 -18 -28 -21 -37 -12 -9 9 -9 12 3 13 7 0 4 4 -9 10 -13 5
-20 13 -17 19 3 5 -1 10 -10 10 -9 0 -13 5 -9 11 3 6 19 9 34 7 19 -3 32 2 41
13 7 10 16 16 21 13 4 -3 8 7 8 22 0 22 3 25 12 16 7 -7 23 -12 36 -12 18 0
23 4 18 16 -8 20 15 58 57 96 24 22 27 29 15 33 -30 12 -9 43 34 50 21 4 37 9
34 13 -3 3 -2 10 4 16 6 8 1 12 -16 14 -15 1 -24 -3 -24 -13 0 -8 -9 -15 -20
-15 -21 0 -28 16 -9 22 7 2 7 11 0 28 l-10 25 -1 -25 c-1 -14 -4 -19 -7 -12
-2 6 -15 12 -28 12 -18 0 -22 4 -18 20 4 15 0 20 -13 21 -16 0 -15 2 4 9 23
10 29 25 12 35 -13 8 -13 25 1 25 6 0 17 7 26 15 19 20 48 15 47 -7 -1 -14 4
-16 27 -11 18 3 29 1 29 -6 0 -6 -5 -11 -10 -11 -6 0 -2 -10 9 -21 14 -15 25
-19 38 -14 17 8 17 8 0 12 -10 3 -16 10 -14 16 3 8 24 11 61 9 44 -2 56 0 56
11 0 14 47 33 57 23 3 -3 -3 -22 -14 -43 -18 -34 -25 -38 -61 -41 -53 -4 -55
-22 -3 -22 l39 0 -18 -72 c-13 -47 -16 -77 -10 -87 7 -12 9 -8 10 15 0 38 15
52 55 48 17 -1 52 -3 78 -3 32 -1 46 -5 41 -12 -11 -19 -98 -52 -131 -50 -36
3 -45 -14 -12 -22 17 -5 19 -9 10 -26 -14 -25 -14 -31 -1 -31 6 0 10 7 10 16
0 15 2 15 23 2 12 -8 33 -21 47 -29 14 -8 28 -19 33 -26 8 -13 37 -7 37 9 0 5
-5 6 -10 3 -6 -3 -18 1 -27 11 -16 16 -15 16 22 12 25 -3 51 1 69 9 28 14 29
14 23 -6 -3 -12 -2 -21 3 -21 4 0 10 16 12 36 5 45 -27 74 -81 74 l-36 0 31
19 c30 18 63 75 50 88 -3 3 -6 -1 -6 -10 0 -13 -11 -16 -52 -16 -29 0 -72 -1
-96 -3 -23 -2 -42 -2 -42 -1 0 1 11 14 25 29 24 26 36 82 15 69 -6 -3 -10 5
-10 18 0 20 4 24 20 20 26 -7 25 9 -2 53 -21 31 -26 34 -56 29 -37 -7 -72 1
-72 17 0 5 7 7 15 4 8 -3 23 -9 32 -13 12 -5 10 0 -6 16 -12 12 -19 27 -15 33
11 17 10 67 0 60 -5 -3 -25 -5 -45 -4 -31 1 -34 -1 -19 -12 9 -6 13 -17 9 -24
-4 -7 -12 1 -20 19 -12 28 -11 32 9 51 23 21 23 22 3 29 -11 4 -23 19 -25 33
-3 14 -1 23 3 20 25 -15 -13 49 -49 84 -13 12 -18 22 -11 22 17 0 5 11 -18 15
-10 2 -20 4 -22 4 -2 1 4 10 13 20 25 28 27 122 2 146 -10 11 -16 27 -13 41 2
14 -2 25 -10 28 -8 3 -19 19 -24 36 -6 16 -15 27 -20 24 -5 -3 -9 3 -9 13 -1
16 -2 15 -13 -3 -13 -23 -37 -21 -37 2 0 9 5 12 11 8 9 -5 10 2 6 22 -3 16 -4
24 -1 17 3 -7 12 -9 20 -6 7 3 11 10 8 15 -4 6 4 8 17 6 13 -1 29 -13 35 -26
9 -17 13 -20 17 -9 3 8 1 19 -5 25 -7 7 -3 12 11 17 12 3 22 11 22 16 1 5 2
14 3 19 0 6 7 15 15 20 12 7 12 11 2 23 -9 11 -9 17 -1 22 7 4 10 19 7 33 -3
14 1 36 9 48 14 21 10 54 -7 54 -5 0 -9 11 -9 24 0 17 -7 26 -25 30 -28 7 -49
0 -40 -14 3 -4 -2 -11 -10 -14 -12 -4 -13 -2 -6 13 6 10 17 23 25 30 9 8 13
17 10 23 -3 5 -12 4 -20 -3 -11 -9 -14 -8 -14 2 0 39 -79 43 -93 5 -4 -9 -11
-16 -17 -16 -6 0 -8 5 -4 12 5 7 2 9 -8 5 -12 -4 -17 2 -21 26 -2 18 -1 34 4
35 18 7 8 19 -26 32 -29 11 -33 16 -19 23 10 6 20 5 27 -2 19 -19 27 -12 27
24 0 19 -4 35 -10 35 -5 0 -9 -5 -7 -12 1 -6 -7 -14 -18 -16 -16 -4 -17 -2 -7
11 7 8 10 22 6 31 -4 10 0 18 10 22 25 10 19 24 -11 25 -24 2 -25 2 -5 6 12 2
22 11 22 19 0 21 23 17 38 -6 7 -11 20 -20 29 -20 9 0 13 3 10 7 -11 10 12 31
31 27 23 -5 45 14 59 54 11 30 10 32 -7 27 -23 -7 -37 13 -16 21 41 16 -7 94
-57 94 -16 0 -26 7 -30 20 -3 14 -14 20 -32 20 -26 0 -55 20 -55 38 0 23 -78
30 -98 10 -6 -6 -14 -9 -17 -6 -3 3 2 13 11 23 15 14 15 18 3 26 -11 7 -11 9
-1 9 7 0 11 4 8 9 -4 5 -1 22 4 37 17 44 -11 64 -92 67 -60 2 -67 4 -71 24 -2
13 -1 23 3 23 11 0 19 37 13 61 -4 16 -8 17 -14 7 -7 -10 -9 -9 -9 4 0 9 -4
20 -10 23 -6 3 -7 -1 -4 -9 4 -11 0 -16 -11 -16 -14 0 -16 6 -11 33 5 30 5 31
-9 13 -15 -19 -15 -19 -15 4 0 13 7 31 16 41 15 16 14 17 -4 12 -27 -7 -36 22
-15 53 15 23 15 26 -3 39 -15 11 -17 16 -6 26 6 7 12 22 12 34 0 25 -22 75
-33 75 -4 0 -4 18 -1 40 4 26 2 45 -6 55 -7 8 -8 15 -3 15 5 0 9 10 9 23 -1
14 5 22 15 22 9 0 23 6 32 13 8 7 29 15 47 17 18 2 34 6 37 9 10 9 -8 25 -22
19 -10 -3 -15 1 -15 12 0 15 -1 15 -16 1 -8 -9 -19 -16 -24 -16 -17 0 -20 19
-4 34 14 15 14 16 -5 16 -12 0 -21 5 -21 10 0 6 -7 10 -16 10 -9 0 -14 7 -12
17 2 9 8 15 13 14 6 -2 9 -7 8 -12 -2 -5 3 -9 11 -9 8 0 16 13 18 30 3 17 1
30 -3 30 -5 0 -11 23 -15 50 -7 55 -22 74 -31 40 -4 -16 -8 -19 -15 -8 -7 10
-10 10 -19 -5 -21 -36 -99 -57 -99 -26 0 4 7 6 15 3 8 -4 15 -1 15 5 0 18 -31
12 -51 -10 -14 -17 -21 -18 -39 -9 -18 10 -19 13 -5 26 8 8 19 13 23 10 5 -3
7 6 4 19 -4 25 13 36 21 13 2 -7 4 -1 4 14 0 25 -26 46 -49 40 -5 -1 -8 5 -8
13 0 16 -29 10 -43 -9 -6 -8 -10 -7 -14 2 -7 17 -23 15 -23 -3 0 -8 5 -15 10
-15 14 0 -26 -38 -44 -42 -8 -2 -15 0 -15 5 -1 4 2 6 5 5 3 -2 10 5 15 14 6
11 4 31 -7 60 -8 24 -16 49 -16 56 -2 19 -16 14 -23 -8 -7 -22 -20 -26 -30
-10 -3 6 -1 10 4 10 23 0 11 41 -15 50 -14 6 -22 14 -19 20 6 9 -11 14 -43 13
-9 -1 -12 6 -8 22 3 13 2 27 -4 30 -5 3 -10 -1 -10 -10 0 -16 -22 -45 -34 -45
-3 0 -5 10 -3 23 1 14 -3 22 -13 22 -9 0 -14 -7 -12 -17 2 -11 -3 -18 -13 -18
-8 0 -15 9 -15 20 0 11 -5 20 -11 20 -5 0 -9 10 -7 23 2 18 -2 22 -27 23 -16
1 -32 3 -35 4 -3 1 -14 3 -24 5 -10 2 -22 7 -25 12 -3 4 -19 15 -34 23 -19 9
-27 20 -24 32 5 19 -8 25 -18 8 -8 -13 -55 -13 -55 1 0 6 5 19 10 30 6 11 7
19 2 19 -6 0 -12 -10 -16 -22 -4 -15 -9 -19 -13 -12 -5 6 -27 11 -50 11 -37 0
-40 -1 -27 -15 13 -12 13 -16 2 -23 -22 -14 -28 -10 -28 20 0 17 -4 33 -10 36
-5 3 -10 10 -10 16 0 14 30 11 36 -4 5 -13 44 -21 44 -9 0 4 -16 18 -35 31
-19 13 -35 29 -35 36 0 7 -9 15 -21 18 -15 4 -19 2 -15 -9 3 -8 1 -14 -4 -14
-6 0 -10 -15 -10 -32 l0 -33 -13 25 c-7 14 -22 25 -32 26 -40 2 -44 4 -39 19
4 11 2 13 -9 9 -8 -3 -18 0 -22 5 -3 6 -11 9 -16 6 -5 -4 -9 -3 -9 2 0 4 -4
14 -9 22 -8 12 -12 13 -26 1 -14 -11 -17 -10 -22 8 -3 12 -9 19 -15 16 -5 -3
-4 -11 2 -20 7 -7 10 -19 8 -25 -2 -7 -11 1 -19 18 -7 16 -18 30 -24 31 -17 1
-18 22 -1 22 20 0 21 19 1 26 -8 3 -22 -1 -30 -10 -18 -18 -45 -21 -45 -6 0 6
-13 10 -30 10 -16 0 -30 4 -30 9 0 5 -9 7 -20 4 -15 -4 -19 -11 -15 -24 4 -11
2 -19 -5 -19 -6 0 -8 5 -5 10 3 6 2 10 -4 10 -5 0 -11 -5 -13 -12 -2 -6 -9 -8
-15 -5 -17 11 -3 47 18 47 24 0 34 18 19 35 -10 13 -14 12 -27 0 -8 -8 -19
-15 -24 -15 -5 0 -9 -7 -9 -15 0 -8 -6 -15 -12 -15 -22 1 -58 37 -58 58 0 15
-5 19 -19 15 -10 -3 -31 3 -46 13 -25 17 -26 16 -32 -4 -7 -30 -18 -27 -33 8
-17 41 -30 47 -30 15 0 -17 4 -24 11 -19 7 4 9 0 5 -14 -6 -16 -1 -21 29 -26
20 -4 33 -11 29 -17 -3 -6 -9 -8 -12 -5 -3 3 -13 -1 -23 -10 -16 -15 -17 -14
-12 5 5 20 -11 31 -19 12 -4 -12 -87 -21 -94 -10 -3 5 -15 9 -26 9 -12 0 -30
7 -40 16 -14 13 -21 14 -32 5 -10 -8 -33 -11 -64 -7 -48 5 -49 4 -44 -20 5
-30 18 -31 25 -2 5 17 9 19 20 9 8 -6 22 -9 31 -5 12 4 16 0 16 -15 0 -17 -6
-20 -37 -19 -20 1 -39 -4 -41 -10 -8 -24 -32 -12 -32 15 0 26 -1 26 -15 7 -14
-18 -14 -18 -8 4 3 12 2 22 -2 22 -4 0 -15 -10 -26 -22 l-18 -23 -1 22 c0 18
-4 21 -32 16 -18 -3 -39 -10 -45 -15 -9 -7 -17 -7 -26 0 -7 6 -22 9 -33 6 -10
-2 -35 -6 -54 -8 -19 -2 -38 -4 -42 -5 -4 0 -5 -7 -2 -14 3 -8 -1 -19 -8 -25
-10 -8 -23 -2 -53 24 -38 32 -55 41 -55 28 0 -3 7 -12 15 -21 9 -8 14 -17 11
-20 -7 -7 -66 26 -66 37 0 6 -11 10 -25 10 -14 0 -25 -4 -25 -10 0 -16 -14
-12 -43 15 -30 28 -32 26 -18 -23 10 -33 2 -42 -18 -19 -6 8 -7 17 -1 23 5 5
5 15 1 23 -13 20 -66 0 -66 -25 0 -16 -6 -18 -37 -16 -31 3 -37 1 -32 -12 5
-12 -1 -16 -24 -16 -17 0 -34 5 -37 10 -3 6 -10 10 -16 10 -15 0 -10 -22 8
-36 26 -19 10 -27 -21 -10 -15 8 -22 16 -16 18 7 2 -1 17 -19 37 -26 28 -34
32 -44 21 -8 -8 -8 -11 -1 -7 7 4 14 -2 17 -14 4 -15 2 -19 -9 -15 -8 3 -14 0
-14 -7 0 -8 -4 -6 -10 3 -6 10 -10 11 -10 3 0 -17 -48 -12 -55 5 -3 8 -3 18 0
22 3 5 -4 14 -15 20 -18 10 -20 8 -21 -22 -2 -31 -2 -31 -8 7 -6 38 -8 40 -38
37 -22 -2 -43 4 -63 18 -16 12 -30 16 -30 10 0 -6 7 -13 15 -16 8 -4 15 -10
15 -15 0 -13 -28 1 -34 18 -4 9 -1 22 5 30 19 22 3 27 -43 13 -24 -6 -51 -12
-60 -13 -10 -1 -18 -7 -18 -14 0 -19 -13 -16 -28 7 -9 15 -9 20 0 20 6 0 8 3
5 6 -4 4 -12 2 -19 -3 -7 -6 -25 -13 -40 -17 -16 -3 -28 -11 -28 -17 0 -6 5
-7 10 -4 13 8 13 -5 0 -25 -8 -13 -10 -13 -10 2 0 9 -9 20 -21 23 -16 5 -18
10 -8 21 9 11 8 14 -4 14 -18 0 -41 -26 -33 -39 3 -5 0 -11 -7 -14 -7 -2 -23
11 -37 30 -23 31 -29 34 -67 30 -50 -5 -63 6 -63 54 0 62 -30 56 -54 -11 -3
-8 -4 2 -3 22 2 51 -13 64 -45 39 -31 -25 -52 -22 -89 13 -21 21 -29 24 -29
12z m210 -132 c0 -8 -5 -12 -10 -9 -6 4 -8 11 -5 16 9 14 15 11 15 -7z m308
-52 c6 -18 -15 -14 -22 4 -4 10 -1 14 6 12 6 -2 14 -10 16 -16z m1772 -3 c0
-5 -4 -8 -9 -4 -5 3 -12 -4 -16 -15 -3 -11 -10 -20 -15 -20 -4 0 -3 11 3 25
12 25 37 35 37 14z m-3890 -64 c5 3 10 2 10 -4 0 -5 -4 -12 -9 -15 -15 -9 -41
5 -41 21 0 12 3 13 15 3 8 -6 19 -9 25 -5z m465 -5 c7 -12 -2 -12 -30 0 -19 8
-19 9 2 9 12 1 25 -3 28 -9z m1986 -19 c-8 -5 -10 -14 -6 -22 6 -11 5 -11 -5
-2 -11 10 -11 15 0 28 7 8 15 13 19 10 3 -3 -1 -10 -8 -14z m523 3 c9 -22 8
-24 -9 -24 -8 0 -15 9 -15 20 0 24 15 27 24 4z m1146 6 c0 -5 -15 -10 -32 -9
-31 1 -32 1 -8 9 35 11 40 11 40 0z m-4095 -30 c3 -5 -1 -10 -9 -10 -8 0 -18
5 -21 10 -3 6 1 10 9 10 8 0 18 -4 21 -10z m2465 0 c0 -5 -4 -10 -10 -10 -5 0
-10 5 -10 10 0 6 5 10 10 10 6 0 10 -4 10 -10z m80 -34 c-6 -6 -15 -4 -25 4
-23 19 -18 29 9 17 15 -7 21 -16 16 -21z m1740 -19 c0 -13 -6 -32 -14 -43 -13
-17 -13 -14 -3 24 13 47 17 52 17 19z m-3133 -39 c-3 -8 -6 -5 -6 6 -1 11 2
17 5 13 3 -3 4 -12 1 -19z m-1292 2 c3 -5 1 -10 -4 -10 -6 0 -11 5 -11 10 0 6
2 10 4 10 3 0 8 -4 11 -10z m53 -40 c-8 -12 -15 -15 -19 -8 -4 6 -14 8 -23 5
-9 -4 -16 -3 -16 2 0 14 13 21 42 21 25 0 27 -2 16 -20z m4442 0 c0 -5 -5 -10
-11 -10 -5 0 -7 5 -4 10 3 6 8 10 11 10 2 0 4 -4 4 -10z m50 -10 c0 -5 -2 -10
-4 -10 -3 0 -8 5 -11 10 -3 6 -1 10 4 10 6 0 11 -4 11 -10z m200 -140 c0 -5
-4 -10 -10 -10 -5 0 -10 5 -10 10 0 6 5 10 10 10 6 0 10 -4 10 -10z m55 -10
c3 -5 0 -11 -7 -11 -7 -1 1 -5 17 -9 30 -8 30 -8 -7 -9 -41 -1 -41 -1 -32 23
7 18 20 21 29 6z m192 -56 c2 -5 -8 -9 -21 -9 -19 0 -22 3 -14 13 12 14 30 12
35 -4z m123 -33 c0 -6 -8 -16 -19 -23 -10 -7 -21 -23 -25 -36 -7 -22 -8 -23
-23 -5 -8 10 -12 12 -8 6 3 -7 1 -13 -5 -13 -6 0 -8 -4 -5 -10 3 -5 2 -10 -4
-10 -5 0 -15 8 -20 18 -9 14 -12 15 -20 3 -12 -18 -31 -5 -31 22 0 29 15 53
24 38 4 -6 23 -11 42 -11 19 0 34 -5 34 -11 0 -5 5 -7 10 -4 6 4 8 15 5 26 -5
15 -1 19 19 19 14 0 26 -4 26 -9z m-5621 -84 c-10 -10 -59 -16 -59 -9 0 14 44
31 54 21 5 -5 8 -10 5 -12z m5757 -33 c-4 -9 -9 -15 -11 -12 -3 3 -3 13 1 22
4 9 9 15 11 12 3 -3 3 -13 -1 -22z m-26 10 c0 -3 -5 -14 -10 -25 -9 -16 -7
-19 9 -19 14 0 19 -5 15 -15 -4 -8 -12 -15 -20 -15 -8 0 -14 7 -14 15 0 8 -6
15 -12 16 -10 0 -10 2 0 6 6 2 12 13 12 24 0 10 5 19 10 19 6 0 10 -3 10 -6z
m-5744 -13 c-8 -12 -46 -21 -46 -11 0 5 8 11 18 13 29 8 33 7 28 -2z m5539 -1
c3 -5 1 -10 -4 -10 -6 0 -11 5 -11 10 0 6 2 10 4 10 3 0 8 -4 11 -10z m232
-96 c-3 -3 -12 -4 -19 -1 -8 3 -5 6 6 6 11 1 17 -2 13 -5z m-117 -74 c0 -5 -4
-10 -9 -10 -6 0 -13 5 -16 10 -3 6 1 10 9 10 9 0 16 -4 16 -10z m117 -32 c-3
-8 -6 -5 -6 6 -1 11 2 17 5 13 3 -3 4 -12 1 -19z m20 0 c-3 -8 -6 -5 -6 6 -1
11 2 17 5 13 3 -3 4 -12 1 -19z m-192 2 c8 -13 -5 -13 -25 0 -13 8 -13 10 2
10 9 0 20 -4 23 -10z m27 -20 c-2 -17 -8 -33 -14 -36 -5 -3 -6 6 -2 23 12 50
23 59 16 13z m368 -21 c0 -4 -7 -9 -15 -13 -8 -3 -15 -10 -15 -17 0 -6 7 -9
15 -5 11 4 15 -2 15 -24 0 -17 5 -30 11 -30 5 0 8 -4 5 -9 -3 -5 1 -11 9 -14
10 -4 16 4 21 28 6 32 24 50 24 24 0 -5 5 -7 12 -3 7 4 8 3 4 -5 -4 -6 0 -18
8 -27 15 -14 16 -14 16 5 0 12 5 21 11 21 15 0 1 -40 -23 -67 -16 -17 -28 -21
-49 -16 -18 3 -38 -1 -54 -11 -14 -9 -25 -12 -25 -6 0 6 -10 2 -22 -10 -22
-20 -38 -26 -38 -14 0 4 11 16 24 28 22 20 42 66 28 66 -4 0 -7 24 -7 53 0 47
2 52 23 52 12 0 22 -3 22 -6z m104 -15 c9 -24 7 -31 -4 -14 -8 13 -10 12 -10
-4 0 -14 -3 -17 -10 -10 -11 11 -3 44 10 44 4 0 11 -7 14 -16z m-2199 -64 c-4
-6 10 -10 35 -10 25 0 39 4 35 10 -3 6 -1 10 4 10 6 0 11 -7 11 -15 0 -9 -9
-15 -25 -15 -14 0 -25 -4 -25 -10 0 -5 -7 -10 -16 -10 -8 0 -12 5 -9 10 3 6
-1 10 -9 10 -9 0 -16 7 -16 15 0 8 5 15 11 15 5 0 7 -4 4 -10z m119 -25 c-4
-9 -17 -15 -33 -14 -17 1 -20 3 -8 6 9 2 17 9 17 14 0 5 7 9 15 9 9 0 12 -6 9
-15z m6 -35 c0 -5 -5 -10 -11 -10 -5 0 -7 5 -4 10 3 6 8 10 11 10 2 0 4 -4 4
-10z m32 -4 c7 4 8 2 4 -5 -9 -13 -26 -5 -25 12 0 9 2 8 6 -1 2 -6 10 -9 15
-6z m2042 -114 c-6 -15 -8 -15 -12 3 -6 28 -22 44 -22 22 0 -10 -8 -17 -20
-17 -11 0 -20 4 -20 9 0 5 9 13 20 16 11 3 20 11 20 18 0 6 9 1 21 -12 14 -14
18 -28 13 -39z m-34 -32 c0 -5 -7 -10 -16 -10 -8 0 -12 5 -9 10 3 6 10 10 16
10 5 0 9 -4 9 -10z m13 -37 c-7 -2 -19 -2 -25 0 -7 3 -2 5 12 5 14 0 19 -2 13
-5z m-46 -19 c-3 -3 -12 -4 -19 -1 -8 3 -5 6 6 6 11 1 17 -2 13 -5z m-1812
-14 c3 -5 -1 -10 -9 -10 -9 0 -16 5 -16 10 0 6 4 10 9 10 6 0 13 -4 16 -10z
m-405 -130 c0 -5 -5 -10 -11 -10 -5 0 -7 5 -4 10 3 6 8 10 11 10 2 0 4 -4 4
-10z m2266 -2 c4 -7 4 -10 -1 -6 -4 4 -14 3 -22 -4 -15 -12 -28 -5 -18 11 9
15 32 14 41 -1z m21 -35 c-3 -10 -5 -4 -5 12 0 17 2 24 5 18 2 -7 2 -21 0 -30z
m-27 -7 c0 -9 -7 -12 -20 -9 -31 8 -34 23 -6 23 16 0 26 -6 26 -14z m-2360
-31 c0 6 5 3 10 -5 6 -10 10 -11 10 -2 0 6 4 12 10 12 5 0 7 -7 4 -15 -4 -8
-13 -15 -21 -15 -9 0 -13 -6 -9 -15 3 -8 1 -15 -4 -15 -6 0 -10 6 -10 13 0 6
-3 23 -6 37 -4 20 -3 22 5 10 6 -8 11 -10 11 -5z m75 5 c3 -5 1 -10 -4 -10 -6
0 -11 5 -11 10 0 6 2 10 4 10 3 0 8 -4 11 -10z m-85 -104 c0 -3 -4 -8 -10 -11
-5 -3 -10 -1 -10 4 0 6 5 11 10 11 6 0 10 -2 10 -4z m2470 -16 c0 -5 -5 -10
-11 -10 -5 0 -7 5 -4 10 3 6 8 10 11 10 2 0 4 -4 4 -10z m-2595 -169 c-3 -6
-11 -8 -17 -5 -6 4 -5 9 3 15 16 10 23 4 14 -10z m-308 -37 c-3 -3 -12 -4 -19
-1 -8 3 -5 6 6 6 11 1 17 -2 13 -5z m-47 -11 c-8 -3 -23 -10 -32 -15 -11 -5
-18 -5 -18 1 0 10 23 18 50 19 13 0 13 0 0 -5z m378 -35 c23 -7 42 -16 42 -21
0 -4 6 -14 12 -21 11 -11 14 -11 23 1 8 11 17 10 53 -7 23 -11 42 -25 42 -30
0 -6 7 -10 15 -10 8 0 15 -4 15 -8 0 -5 11 -22 25 -38 52 -60 78 -105 77 -134
0 -16 4 -32 9 -35 12 -8 9 -124 -3 -131 -5 -3 -6 -15 -2 -26 4 -15 2 -19 -7
-16 -8 3 -13 12 -13 20 1 10 -6 13 -23 10 -13 -3 -31 2 -41 12 -15 12 -25 14
-55 5 -41 -11 -46 -22 -19 -39 13 -8 6 -10 -34 -8 -38 2 -50 0 -47 -9 3 -7 11
-13 19 -13 8 0 14 -5 14 -11 0 -7 8 -18 18 -25 16 -13 16 -15 -2 -29 -22 -17
-46 -4 -46 25 0 12 -6 17 -17 15 -10 -1 -12 0 -5 2 18 7 15 20 -10 38 -18 12
-20 17 -9 24 9 6 10 10 2 16 -9 5 -9 10 -1 20 8 10 8 15 0 20 -7 4 -9 19 -5
37 7 29 6 30 -24 23 -21 -4 -40 -2 -54 7 -12 8 -42 15 -67 15 -25 1 -37 -1
-27 -3 9 -3 15 -10 11 -15 -3 -5 -10 -7 -15 -4 -5 3 -6 0 -3 -8 4 -11 -6 -15
-43 -15 -26 -1 -59 -6 -73 -11 -14 -5 -59 -17 -100 -26 -41 -10 -87 -24 -102
-31 -15 -8 -36 -14 -48 -14 -11 0 -23 -7 -26 -15 -10 -24 -22 -17 -16 10 3 19
-1 27 -19 34 -16 6 -29 5 -38 -3 -9 -6 -7 1 5 19 10 17 23 33 28 37 14 9 0 22
-13 13 -6 -3 -11 -13 -11 -21 0 -8 -4 -13 -9 -10 -5 3 -11 -3 -14 -14 -3 -11
-11 -20 -17 -20 -9 0 -11 12 -7 42 4 27 2 37 -4 27 -5 -7 -8 -45 -8 -84 1 -50
3 -61 8 -40 7 29 7 29 15 8 4 -13 18 -26 32 -29 26 -7 33 -24 10 -24 -8 0 -18
-9 -21 -21 -4 -12 -12 -18 -21 -15 -19 7 -18 -6 10 -77 13 -34 27 -78 31 -97
11 -51 71 -170 107 -210 27 -30 30 -32 25 -12 -5 23 -5 23 14 6 23 -20 26 -2
4 20 -14 14 -13 16 8 21 15 4 30 20 41 46 16 37 57 62 73 45 4 -3 -1 -6 -10
-6 -10 0 -17 -4 -17 -10 0 -18 29 -10 35 10 4 12 15 20 28 20 17 0 19 2 8 9
-11 7 -10 11 7 20 27 15 32 14 32 -5 0 -9 9 -18 20 -21 15 -4 20 -14 20 -39 0
-28 4 -34 21 -34 15 0 19 5 15 15 -3 9 0 15 9 15 9 0 15 -10 15 -25 0 -14 8
-29 21 -35 20 -11 20 -12 3 -31 -9 -10 -25 -19 -34 -19 -10 0 -20 -7 -24 -15
-3 -8 -12 -15 -20 -15 -9 0 -20 -9 -26 -21 -7 -13 -17 -18 -27 -14 -9 3 -20 0
-25 -7 -11 -19 -10 -30 4 -22 7 4 8 3 4 -5 -5 -7 -17 -9 -29 -5 -30 9 -32 11
-17 29 17 20 1 19 -22 -2 -11 -9 -18 -11 -18 -5 0 7 -8 12 -17 12 -15 0 -16 2
-3 10 11 7 6 10 -20 10 l-35 0 25 -20 c14 -11 34 -23 45 -26 11 -4 31 -15 44
-25 13 -11 32 -19 42 -19 11 0 19 -4 19 -10 0 -13 2 -13 -62 9 -68 23 -106 43
-138 71 -14 12 -32 27 -40 34 -31 23 -99 114 -147 196 -54 95 -59 120 -57 313
1 59 -3 107 -7 107 -9 0 -13 -21 -9 -54 1 -12 -3 -16 -10 -11 -7 4 -10 19 -6
36 3 17 1 29 -5 29 -6 0 -8 -4 -4 -9 3 -5 1 -12 -5 -16 -5 -3 -10 3 -10 14 0
12 -7 21 -15 21 -8 0 -15 5 -15 10 0 6 9 10 20 10 22 0 29 12 34 56 3 25 7 29
37 30 45 1 61 -6 55 -22 -6 -15 37 -67 47 -58 3 4 19 -3 36 -15 23 -17 35 -19
54 -12 14 5 27 7 30 4 3 -2 56 -5 117 -5 107 0 111 1 131 26 11 14 25 24 30
21 5 -4 9 -1 9 5 0 6 -7 13 -15 16 -8 4 -13 10 -10 14 3 4 -2 11 -11 14 -14 5
-14 7 0 22 19 18 13 55 -16 96 -19 27 -19 27 3 23 11 -2 28 -10 37 -17 13 -12
14 -7 8 38 -6 47 -5 51 15 49 11 -1 25 -8 30 -16 8 -12 10 -12 19 1 14 22 12
30 -7 30 -30 0 -43 14 -36 38 5 21 10 22 67 18 33 -3 80 -11 104 -18z m-538
-63 c-7 -9 -15 -13 -19 -10 -3 3 1 10 9 15 21 14 24 12 10 -5z m1794 -21 c5
-14 4 -15 -9 -4 -10 8 -15 9 -15 1 0 -6 -9 -11 -20 -11 -27 0 -25 18 3 23 12
2 25 5 28 6 4 0 10 -6 13 -15z m1647 -11 c-12 -20 -14 -14 -5 12 4 9 9 14 11
11 3 -2 0 -13 -6 -23z m104 -23 c-3 -5 -13 -10 -21 -10 -8 0 -12 5 -9 10 3 6
13 10 21 10 8 0 12 -4 9 -10z m-3261 -106 c9 -23 4 -24 -16 -2 -14 14 -15 18
-4 18 8 0 17 -7 20 -16z m3283 10 c-3 -3 -12 -4 -19 -1 -8 3 -5 6 6 6 11 1 17
-2 13 -5z m-3647 -8 c0 -3 -4 -8 -10 -11 -5 -3 -10 -1 -10 4 0 6 5 11 10 11 6
0 10 -2 10 -4z m2100 -70 c0 -11 -19 -15 -25 -6 -3 5 1 10 9 10 9 0 16 -2 16
-4z m350 -11 c0 -8 -2 -15 -4 -15 -2 0 -6 7 -10 15 -3 8 -1 15 4 15 6 0 10 -7
10 -15z m-440 -15 c0 -5 -4 -10 -9 -10 -6 0 -13 5 -16 10 -3 6 1 10 9 10 9 0
16 -4 16 -10z m36 -37 c-2 -16 -1 -22 1 -15 4 11 23 18 23 8 0 -11 -40 -89
-40 -78 0 6 -8 12 -17 12 -16 1 -16 2 -3 13 9 7 15 27 14 50 -1 25 3 37 12 37
9 0 12 -10 10 -27z m429 6 c4 -11 4 -23 0 -27 -7 -7 -25 17 -25 36 0 20 18 14
25 -9z m1005 11 c0 -5 -4 -10 -10 -10 -5 0 -10 5 -10 10 0 6 5 10 10 10 6 0
10 -4 10 -10z m-1720 -74 c0 -11 -19 -15 -25 -6 -3 5 1 10 9 10 9 0 16 -2 16
-4z m80 -6 c0 -5 -4 -10 -10 -10 -5 0 -10 5 -10 10 0 6 5 10 10 10 6 0 10 -4
10 -10z m250 -5 c0 -9 -6 -12 -15 -9 -8 4 -12 10 -9 15 8 14 24 10 24 -6z
m-136 -10 c-4 -8 -13 -15 -22 -15 -13 0 -12 3 4 15 24 18 25 18 18 0z m-1920
-37 c6 -4 7 -10 3 -15 -10 -9 -27 16 -26 37 1 13 1 13 6 0 3 -8 11 -18 17 -22z
m1979 2 c-6 -21 -18 -26 -28 -11 -4 7 17 28 32 31 0 0 -1 -9 -4 -20z m1457 10
c12 -8 11 -10 -7 -10 -13 0 -23 5 -23 10 0 13 11 13 30 0z m-1380 -16 c0 -2
-7 -4 -15 -4 -8 0 -15 4 -15 10 0 5 7 7 15 4 8 -4 15 -8 15 -10z m-1820 -14
c-8 -5 -19 -10 -25 -10 -5 0 -3 5 5 10 8 5 20 10 25 10 6 0 3 -5 -5 -10z
m1790 -12 c0 -11 -28 -10 -35 1 -3 6 4 9 15 8 11 -1 20 -5 20 -9z m1423 -5
c-7 -2 -19 -2 -25 0 -7 3 -2 5 12 5 14 0 19 -2 13 -5z m-3270 -9 c9 -3 17 -12
17 -21 0 -9 -6 -13 -15 -9 -8 3 -15 1 -15 -3 0 -5 -3 -18 -6 -28 -5 -16 -4
-16 5 -1 6 9 29 19 51 23 22 4 42 11 46 16 14 22 34 8 34 -25 0 -45 23 -99 52
-120 l23 -17 -22 5 c-13 2 -25 1 -28 -4 -7 -11 -176 -3 -188 9 -15 15 -40 14
-31 -1 4 -7 3 -8 -4 -4 -7 4 -12 14 -12 23 0 11 -6 14 -25 9 -15 -4 -25 -2
-25 4 0 6 4 9 9 6 13 -8 59 31 76 64 20 39 19 41 -10 34 -22 -5 -25 -3 -21 17
3 13 5 24 5 25 3 4 69 2 84 -2z m567 -15 c0 -4 -7 -6 -15 -3 -8 4 -15 10 -15
15 0 4 7 6 15 3 8 -4 15 -10 15 -15z m307 -11 c-3 -8 -6 -5 -6 6 -1 11 2 17 5
13 3 -3 4 -12 1 -19z m-80 -30 c-2 -7 -11 -12 -19 -10 -9 1 -19 -5 -22 -15 -6
-14 -9 -15 -16 -4 -4 8 -6 20 -3 28 7 17 66 18 60 1z m-1110 -30 c-3 -8 -6 -5
-6 6 -1 11 2 17 5 13 3 -3 4 -12 1 -19z m523 6 c0 -17 -22 -14 -28 4 -2 7 3
12 12 12 9 0 16 -7 16 -16z m3030 6 c0 -5 -7 -10 -15 -10 -8 0 -15 5 -15 10 0
6 7 10 15 10 8 0 15 -4 15 -10z m-3444 -37 c-10 -10 -19 5 -10 18 6 11 8 11
12 0 2 -7 1 -15 -2 -18z m3624 2 c-7 -8 -17 -15 -22 -15 -6 0 -5 7 2 15 7 8
17 15 22 15 6 0 5 -7 -2 -15z m-135 -5 c3 -5 1 -10 -4 -10 -6 0 -11 5 -11 10
0 6 2 10 4 10 3 0 8 -4 11 -10z m-2507 -22 c-6 -18 -28 -21 -28 -4 0 9 7 16
16 16 9 0 14 -5 12 -12z m1519 -38 c0 -27 -4 -50 -8 -50 -4 0 -10 -25 -14 -55
-3 -30 -11 -55 -16 -55 -5 0 -9 -7 -9 -16 0 -46 -126 -224 -159 -224 -6 0 -11
-4 -11 -8 0 -8 -53 -42 -66 -42 -4 0 16 17 44 39 29 21 63 50 77 63 33 33 96
139 89 149 -3 5 -1 9 4 9 10 0 45 123 57 198 4 23 8 42 10 42 1 0 2 -22 2 -50z
m-1783 -21 c-3 -5 -12 -9 -20 -9 -8 0 -15 -8 -15 -17 -1 -17 -2 -17 -6 -1 -2
9 1 26 7 38 9 17 14 19 26 10 7 -7 11 -16 8 -21z m2779 1 c-5 -19 -23 -39 -23
-25 0 9 20 45 24 45 2 0 2 -9 -1 -20z m-1956 -42 c-3 -8 -6 -5 -6 6 -1 11 2
17 5 13 3 -3 4 -12 1 -19z m2138 -18 c9 7 19 10 22 6 10 -9 -18 -27 -37 -24
-8 2 -21 -1 -27 -5 -8 -5 -13 -3 -13 6 0 21 12 28 27 16 10 -9 17 -8 28 1z
m-2545 -10 c0 -5 -7 -10 -16 -10 -8 0 -12 5 -9 10 3 6 10 10 16 10 5 0 9 -4 9
-10z m-90 -50 c0 -5 -5 -10 -11 -10 -5 0 -7 5 -4 10 3 6 8 10 11 10 2 0 4 -4
4 -10z m720 -60 c0 -5 7 -10 15 -10 7 0 18 -6 22 -14 4 -7 26 -19 48 -27 26
-8 34 -14 22 -17 -21 -4 -13 -22 11 -22 24 0 46 -38 33 -54 -6 -7 -8 -16 -5
-19 10 -9 -5 -57 -17 -57 -6 0 -8 9 -4 21 7 20 4 22 -26 17 -38 -6 -59 -1 -59
14 0 6 7 8 15 4 10 -4 15 1 15 15 0 17 -3 18 -21 8 -20 -10 -21 -9 -17 19 3
23 0 32 -14 35 -22 6 -22 7 -2 -43 9 -23 14 -44 10 -47 -3 -4 -6 1 -6 10 0 18
-28 36 -48 31 -7 -1 -8 0 -2 3 6 3 -1 19 -17 39 -54 65 -74 94 -66 94 4 0 25
-4 46 -9 29 -7 37 -6 37 5 0 8 7 14 15 14 8 0 15 -4 15 -10z m-760 -20 c0 -5
-7 -7 -15 -4 -8 4 -12 10 -9 15 6 11 24 2 24 -11z m670 -50 c0 -5 -2 -10 -4
-10 -3 0 -8 5 -11 10 -3 6 -1 10 4 10 6 0 11 -4 11 -10z m-620 -50 c0 -5 -4
-10 -10 -10 -5 0 -10 5 -10 10 0 6 5 10 10 10 6 0 10 -4 10 -10z m709 -49 c8
-5 9 -11 3 -15 -5 -3 -15 1 -22 9 -14 16 -3 20 19 6z m238 -43 c-3 -8 -6 -5
-6 6 -1 11 2 17 5 13 3 -3 4 -12 1 -19z m90 -10 c-3 -8 -6 -5 -6 6 -1 11 2 17
5 13 3 -3 4 -12 1 -19z m-1682 -8 c3 -5 -1 -10 -9 -10 -9 0 -16 5 -16 10 0 6
4 10 9 10 6 0 13 -4 16 -10z m-25 -36 c0 -2 -13 -4 -30 -4 -16 0 -30 4 -30 8
0 5 14 7 30 4 17 -2 30 -6 30 -8z m1810 -110 c0 -8 -4 -12 -10 -9 -5 3 -10 10
-10 16 0 5 5 9 10 9 6 0 10 -7 10 -16z m1600 -154 c0 -5 -4 -10 -9 -10 -6 0
-13 5 -16 10 -3 6 1 10 9 10 9 0 16 -4 16 -10z m-124 -35 c-11 -8 -16 -15 -11
-15 4 0 0 -9 -10 -20 -24 -26 -45 -26 -38 0 6 23 40 50 63 50 12 -1 11 -4 -4
-15z m-3816 -25 c0 -5 -2 -10 -4 -10 -3 0 -8 5 -11 10 -3 6 -1 10 4 10 6 0 11
-4 11 -10z m71 -35 c-1 -15 -24 -12 -29 3 -3 9 2 13 12 10 10 -1 17 -7 17 -13z
m4009 -245 c0 -5 -5 -10 -11 -10 -5 0 -7 5 -4 10 3 6 8 10 11 10 2 0 4 -4 4
-10z m176 -150 c19 -8 24 -14 17 -21 -13 -13 -126 -21 -118 -8 3 5 -1 6 -9 3
-22 -8 -20 13 2 25 22 13 74 14 108 1z m-541 -40 c3 -5 1 -10 -4 -10 -6 0 -11
5 -11 10 0 6 2 10 4 10 3 0 8 -4 11 -10z m-4635 -215 c4 -5 11 -33 15 -61 l7
-52 -28 6 c-15 3 -29 13 -31 23 -3 11 -9 19 -13 19 -15 0 -5 55 13 72 9 10 18
26 18 36 1 9 4 6 6 -8 3 -14 8 -29 13 -35z m4509 14 c-8 -5 -16 -3 -21 4 -14
22 -8 28 13 16 17 -9 19 -13 8 -20z m-264 -429 c3 -5 -1 -10 -9 -10 -9 0 -16
5 -16 10 0 6 4 10 9 10 6 0 13 -4 16 -10z m15 -30 c0 -5 -5 -10 -11 -10 -5 0
-7 5 -4 10 3 6 8 10 11 10 2 0 4 -4 4 -10z m-123 -26 c-3 -3 -12 -4 -19 -1 -8
3 -5 6 6 6 11 1 17 -2 13 -5z m48 -56 c12 -11 -45 -15 -61 -3 -14 10 -11 11
19 11 20 -1 39 -4 42 -8z m24 -65 c6 -12 5 -22 -4 -29 -9 -9 -12 -6 -13 17 -1
33 3 36 17 12z m240 -160 c-6 -16 -10 -30 -9 -33 1 -2 -3 -6 -9 -8 -13 -4 -14
8 -1 28 5 9 5 19 -2 27 -8 10 -5 13 11 13 18 0 19 -3 10 -27z m-229 -28 c0 -7
-10 -12 -25 -11 -28 1 -34 22 -7 29 22 5 32 -1 32 -18z m-3 -47 c-3 -8 -6 -5
-6 6 -1 11 2 17 5 13 3 -3 4 -12 1 -19z m-1120 -124 c-1 -2 -8 0 -14 4 -7 5
-10 18 -6 32 7 25 7 25 14 -5 5 -16 7 -30 6 -31z m203 -58 c8 -23 13 -27 22
-18 13 13 37 -12 38 -40 0 -10 7 -18 17 -18 14 0 103 -84 103 -98 0 -3 12 -21
26 -39 28 -37 28 -31 11 -295 -1 -16 -5 -28 -8 -28 -4 0 -10 -16 -14 -36 -8
-44 -54 -144 -66 -144 -5 0 -9 -5 -9 -11 0 -6 -16 -38 -35 -70 -19 -33 -35
-66 -35 -73 0 -7 -11 -23 -25 -36 -14 -13 -25 -29 -25 -36 0 -7 -4 -14 -8 -16
-5 -2 -29 -34 -53 -73 -81 -131 -188 -255 -284 -333 -38 -31 -71 -60 -73 -64
-2 -4 -8 -8 -14 -8 -5 0 -17 -7 -26 -16 -15 -15 -179 -124 -186 -124 -2 0 -29
-16 -61 -35 -32 -19 -81 -42 -109 -51 -28 -9 -55 -23 -59 -30 -4 -8 -17 -14
-27 -14 -11 0 -20 -3 -20 -8 0 -4 -24 -15 -52 -25 -58 -20 -114 -43 -140 -57
-10 -6 -27 -10 -38 -10 -10 0 -34 -6 -52 -14 -18 -8 -60 -22 -93 -32 -33 -9
-64 -20 -70 -24 -5 -4 -27 -11 -49 -14 -21 -4 -46 -11 -55 -16 -27 -15 -140
-50 -160 -50 -29 0 -35 17 -11 32 11 7 20 18 20 25 0 6 10 15 22 19 29 9 79
59 70 69 -4 5 -2 5 5 2 16 -10 43 2 43 18 0 8 9 17 20 20 11 3 20 11 20 16 0
6 5 7 10 4 6 -3 10 -1 10 5 0 6 4 9 9 6 5 -3 11 0 14 8 7 17 66 48 78 40 5 -3
9 4 9 15 0 12 7 21 15 21 8 0 19 9 25 20 6 11 15 18 21 15 5 -4 9 1 9 9 0 9 5
16 10 16 6 0 10 -6 10 -12 0 -9 3 -8 9 2 6 8 7 18 5 22 -3 4 2 8 10 8 9 0 26
10 38 22 13 13 27 23 33 24 5 0 18 2 29 2 12 2 16 7 12 18 -4 9 1 27 9 40 16
25 45 32 45 12 0 -7 9 5 19 27 11 22 20 34 20 28 1 -7 6 -13 12 -13 6 0 8 9 4
22 -6 17 -4 20 9 15 10 -4 15 -3 11 3 -6 9 8 14 28 11 4 0 7 8 7 19 0 11 7 20
15 20 8 0 22 12 32 28 23 37 73 87 73 73 0 -6 8 -3 19 7 10 9 18 20 17 23 -1
4 10 17 25 31 14 13 28 31 32 41 3 9 11 17 17 17 5 0 10 7 10 15 0 8 5 15 10
15 6 0 10 9 10 20 0 11 7 20 15 20 8 0 12 6 9 14 -3 8 -1 17 5 21 6 3 11 15
11 26 0 11 4 18 8 15 5 -3 15 4 23 16 8 11 20 26 27 34 7 7 11 17 10 21 -2 4
10 35 26 67 25 50 31 57 37 40 5 -12 6 -4 3 21 -4 29 -3 36 5 25 14 -20 24 -6
24 33 0 17 2 26 4 20 6 -16 53 39 53 62 0 9 4 14 9 11 5 -3 12 1 15 9 3 9 -1
18 -9 21 -8 4 -15 11 -15 16 0 6 6 5 15 -2 12 -10 15 -7 21 17 4 15 11 34 17
40 5 7 7 22 4 32 -3 13 1 21 14 24 16 4 19 12 14 46 -4 32 -2 41 10 41 8 0 15
6 15 13 0 6 7 26 16 42 9 17 20 61 25 99 5 38 15 74 23 80 20 17 27 56 9 56
-9 0 -11 5 -6 12 4 7 6 25 4 41 -1 17 3 29 13 33 9 3 16 11 16 16 0 6 10 19
22 30 22 18 32 19 71 3 12 -5 17 -2 17 9 0 26 67 -32 80 -68z m-5156 -222 c31
-30 10 -34 -25 -4 -19 15 -21 19 -7 20 9 0 24 -7 32 -16z m1914 -97 c2 -12 -1
-15 -12 -11 -19 7 -22 38 -3 32 6 -3 13 -12 15 -21z m1759 -9 c-3 -8 -6 -5 -6
6 -1 11 2 17 5 13 3 -3 4 -12 1 -19z m30 0 c-3 -8 -6 -5 -6 6 -1 11 2 17 5 13
3 -3 4 -12 1 -19z m243 -178 c0 -5 -5 -10 -11 -10 -5 0 -7 5 -4 10 3 6 8 10
11 10 2 0 4 -4 4 -10z m-103 -42 c-3 -7 -5 -2 -5 12 0 14 2 19 5 13 2 -7 2
-19 0 -25z m-17 12 c0 -5 -4 -10 -10 -10 -5 0 -10 5 -10 10 0 6 5 10 10 10 6
0 10 -4 10 -10z m100 -10 c0 -5 -5 -10 -11 -10 -5 0 -7 5 -4 10 3 6 8 10 11
10 2 0 4 -4 4 -10z m-159 -53 c-8 -8 -11 -7 -11 4 0 20 13 34 18 19 3 -7 -1
-17 -7 -23z m129 -8 c0 -9 -31 -21 -37 -15 -3 3 -3 9 1 14 6 10 36 12 36 1z
m845 -18 c-3 -6 -11 -11 -16 -11 -5 0 -4 6 3 14 14 16 24 13 13 -3z m-1545
-66 c0 -8 -2 -15 -4 -15 -2 0 -6 7 -10 15 -3 8 -1 15 4 15 6 0 10 -7 10 -15z
m-1955 -115 c3 -5 1 -10 -4 -10 -6 0 -11 5 -11 10 0 6 2 10 4 10 3 0 8 -4 11
-10z m12 -52 c-3 -8 -6 -5 -6 6 -1 11 2 17 5 13 3 -3 4 -12 1 -19z m29 -43
c-3 -9 -10 -14 -15 -11 -5 4 -12 0 -15 -6 -2 -7 -4 -4 -3 7 2 11 6 26 11 33
11 19 31 -1 22 -23z m1404 -15 c0 -5 -4 -10 -10 -10 -5 0 -10 5 -10 10 0 6 5
10 10 10 6 0 10 -4 10 -10z m100 -30 c0 -5 -2 -10 -4 -10 -3 0 -8 5 -11 10 -3
6 -1 10 4 10 6 0 11 -4 11 -10z m-120 -126 c0 -3 -7 -12 -15 -20 -13 -14 -15
-13 -15 5 0 12 6 21 15 21 8 0 15 -3 15 -6z m-1440 -34 c0 -5 -7 -10 -15 -10
-8 0 -15 5 -15 10 0 6 7 10 15 10 8 0 15 -4 15 -10z m1390 -150 c0 -11 -4 -20
-9 -20 -13 0 -32 26 -24 33 13 14 33 6 33 -13z m-2247 -87 c-7 -2 -21 -2 -30
0 -10 3 -4 5 12 5 17 0 24 -2 18 -5z m751 -68 c3 -8 1 -15 -4 -15 -6 0 -10 7
-10 15 0 8 2 15 4 15 2 0 6 -7 10 -15z m226 -70 c0 -8 -4 -15 -10 -15 -5 0
-10 7 -10 15 0 8 5 15 10 15 6 0 10 -7 10 -15z m-320 -135 c0 -5 -2 -10 -4
-10 -3 0 -8 5 -11 10 -3 6 -1 10 4 10 6 0 11 -4 11 -10z"/>
<path d="M5620 6390 c0 -5 6 -10 14 -10 8 0 18 5 21 10 3 6 -3 10 -14 10 -12
0 -21 -4 -21 -10z"/>
<path d="M6170 5970 c0 -5 7 -10 16 -10 8 0 12 5 9 10 -3 6 -10 10 -16 10 -5
0 -9 -4 -9 -10z"/>
<path d="M3010 4795 c0 -8 4 -15 10 -15 5 0 7 7 4 15 -4 8 -8 15 -10 15 -2 0
-4 -7 -4 -15z"/>
<path d="M3510 4794 c0 -14 3 -14 15 -4 8 7 15 14 15 16 0 2 -7 4 -15 4 -8 0
-15 -7 -15 -16z"/>
<path d="M3185 4761 c-19 -8 -19 -8 2 -19 19 -11 22 -10 20 8 -1 11 -1 20 -2
19 0 0 -9 -4 -20 -8z"/>
<path d="M3244 4750 c0 -11 6 -20 14 -20 7 0 10 5 6 11 -3 6 0 15 7 20 11 7 9
9 -6 9 -14 0 -21 -6 -21 -20z"/>
<path d="M4985 4120 c3 -5 8 -10 11 -10 2 0 4 5 4 10 0 6 -5 10 -11 10 -5 0
-7 -4 -4 -10z"/>
<path d="M5140 1949 c0 -5 5 -7 10 -4 6 3 10 8 10 11 0 2 -4 4 -10 4 -5 0 -10
-5 -10 -11z"/>
<path d="M1861 7004 c0 -11 3 -14 6 -6 3 7 2 16 -1 19 -3 4 -6 -2 -5 -13z"/>
<path d="M2658 7003 c7 -3 16 -2 19 1 4 3 -2 6 -13 5 -11 0 -14 -3 -6 -6z"/>
<path d="M2840 6985 c-10 -12 -10 -15 3 -15 19 0 31 16 18 24 -5 3 -14 -1 -21
-9z"/>
<path d="M2700 6978 c0 -4 7 -8 15 -8 8 0 15 4 15 8 0 5 -7 9 -15 9 -8 0 -15
-4 -15 -9z"/>
<path d="M3235 6960 c3 -5 10 -10 16 -10 5 0 9 5 9 10 0 6 -7 10 -16 10 -8 0
-12 -4 -9 -10z"/>
<path d="M3177 6944 c-8 -8 3 -34 14 -34 11 0 12 27 0 34 -4 3 -11 3 -14 0z"/>
<path d="M4217 6939 c7 -7 15 -10 18 -7 3 3 -2 9 -12 12 -14 6 -15 5 -6 -5z"/>
<path d="M3970 6899 c0 -5 5 -7 10 -4 6 3 10 8 10 11 0 2 -4 4 -10 4 -5 0 -10
-5 -10 -11z"/>
<path d="M4880 6890 c0 -5 5 -10 10 -10 6 0 10 5 10 10 0 6 -4 10 -10 10 -5 0
-10 -4 -10 -10z"/>
<path d="M4910 6870 c0 -5 5 -10 10 -10 6 0 10 5 10 10 0 6 -4 10 -10 10 -5 0
-10 -4 -10 -10z"/>
<path d="M4999 6877 c-3 -10 -8 -47 -6 -47 1 0 10 9 19 19 14 16 14 20 2 25
-8 3 -14 4 -15 3z"/>
<path d="M545 6840 c3 -5 8 -10 11 -10 2 0 4 5 4 10 0 6 -5 10 -11 10 -5 0 -7
-4 -4 -10z"/>
<path d="M5025 6830 c-3 -5 -1 -10 4 -10 6 0 11 5 11 10 0 6 -2 10 -4 10 -3 0
-8 -4 -11 -10z"/>
<path d="M5100 6784 c0 -7 8 -10 20 -7 11 3 20 8 20 12 0 4 -9 7 -20 7 -11 0
-20 -6 -20 -12z"/>
<path d="M5548 6763 c7 -3 16 -2 19 1 4 3 -2 6 -13 5 -11 0 -14 -3 -6 -6z"/>
<path d="M5595 6720 c4 -6 11 -8 16 -5 14 9 11 15 -7 15 -8 0 -12 -5 -9 -10z"/>
<path d="M5460 6710 c-8 -5 -12 -11 -9 -14 2 -3 11 -1 19 4 8 5 12 11 9 14 -2
3 -11 1 -19 -4z"/>
<path d="M420 6700 c0 -5 5 -10 11 -10 5 0 7 5 4 10 -3 6 -8 10 -11 10 -2 0
-4 -4 -4 -10z"/>
<path d="M5615 6700 c-3 -5 1 -10 10 -10 9 0 13 5 10 10 -3 6 -8 10 -10 10 -2
0 -7 -4 -10 -10z"/>
<path d="M5572 6680 c0 -14 2 -19 5 -12 2 6 2 18 0 25 -3 6 -5 1 -5 -13z"/>
<path d="M5410 6639 c0 -5 5 -7 10 -4 6 3 10 8 10 11 0 2 -4 4 -10 4 -5 0 -10
-5 -10 -11z"/>
<path d="M5580 6635 c0 -8 7 -15 15 -15 8 0 15 4 15 9 0 5 -7 11 -15 15 -9 3
-15 0 -15 -9z"/>
<path d="M5620 6639 c0 -5 5 -7 10 -4 6 3 10 8 10 11 0 2 -4 4 -10 4 -5 0 -10
-5 -10 -11z"/>
<path d="M460 6630 c0 -5 7 -7 15 -4 8 4 15 8 15 10 0 2 -7 4 -15 4 -8 0 -15
-4 -15 -10z"/>
<path d="M5575 6600 c-8 -13 4 -32 16 -25 12 8 12 35 0 35 -6 0 -13 -4 -16
-10z"/>
<path d="M5620 6570 c0 -5 5 -10 10 -10 6 0 10 5 10 10 0 6 -4 10 -10 10 -5 0
-10 -4 -10 -10z"/>
<path d="M5660 6519 c0 -5 5 -7 10 -4 6 3 10 8 10 11 0 2 -4 4 -10 4 -5 0 -10
-5 -10 -11z"/>
<path d="M6267 5933 c-9 -9 -9 -33 1 -33 4 0 13 9 20 20 10 16 10 20 -1 20 -8
0 -17 -3 -20 -7z"/>
<path d="M6310 5894 c0 -8 5 -12 10 -9 6 4 8 11 5 16 -9 14 -15 11 -15 -7z"/>
<path d="M3935 5720 c-3 -6 1 -13 9 -16 9 -3 16 -11 16 -18 0 -6 9 -12 20 -13
25 -2 27 25 3 43 -22 16 -40 18 -48 4z"/>
<path d="M6380 5441 c0 -11 4 -21 9 -21 18 0 21 18 6 30 -13 10 -15 9 -15 -9z"/>
<path d="M6350 5395 c0 -8 9 -13 20 -12 11 1 20 6 20 12 0 6 -9 11 -20 12 -11
1 -20 -4 -20 -12z"/>
<path d="M4060 4991 c0 -6 5 -13 10 -16 6 -3 10 1 10 9 0 9 -4 16 -10 16 -5 0
-10 -4 -10 -9z"/>
<path d="M4972 4951 c-11 -7 -10 -10 3 -15 23 -9 25 -8 25 9 0 17 -9 19 -28 6z"/>
<path d="M4644 4929 c-3 -6 0 -15 7 -20 20 -12 31 -11 23 2 -3 6 0 15 7 20 11
6 8 9 -8 9 -12 0 -25 -5 -29 -11z"/>
<path d="M4795 4760 c-3 -5 -1 -10 4 -10 6 0 11 5 11 10 0 6 -2 10 -4 10 -3 0
-8 -4 -11 -10z"/>
<path d="M6710 4710 c0 -5 5 -10 11 -10 5 0 7 5 4 10 -3 6 -8 10 -11 10 -2 0
-4 -4 -4 -10z"/>
<path d="M4320 4565 c0 -8 2 -15 4 -15 2 0 6 7 10 15 3 8 1 15 -4 15 -6 0 -10
-7 -10 -15z"/>
<path d="M4340 4300 c0 -5 7 -10 15 -10 8 0 15 5 15 10 0 6 -7 10 -15 10 -8 0
-15 -4 -15 -10z"/>
<path d="M4360 4210 c0 -5 5 -10 10 -10 6 0 10 5 10 10 0 6 -4 10 -10 10 -5 0
-10 -4 -10 -10z"/>
<path d="M4040 4150 c0 -5 5 -10 10 -10 6 0 10 5 10 10 0 6 -4 10 -10 10 -5 0
-10 -4 -10 -10z"/>
<path d="M3910 4059 c0 -5 5 -7 10 -4 6 3 10 8 10 11 0 2 -4 4 -10 4 -5 0 -10
-5 -10 -11z"/>
<path d="M4395 4040 c-3 -5 -1 -10 4 -10 6 0 11 5 11 10 0 6 -2 10 -4 10 -3 0
-8 -4 -11 -10z"/>
<path d="M3738 3983 c7 -3 16 -2 19 1 4 3 -2 6 -13 5 -11 0 -14 -3 -6 -6z"/>
<path d="M4307 3747 c-3 -9 -15 -17 -25 -17 -27 0 -74 -25 -99 -52 -22 -25
-39 -88 -23 -88 6 0 10 6 10 13 0 9 2 9 9 -1 12 -20 102 -15 109 7 5 16 22 14
22 -4 0 -9 10 -15 28 -16 17 -1 20 -3 9 -6 -9 -2 -15 -9 -11 -14 3 -5 10 -7
15 -4 5 4 9 1 9 -5 0 -8 9 -10 24 -6 14 3 28 1 31 -5 5 -7 14 -3 26 10 21 22
25 46 8 57 -6 3 -8 17 -5 29 8 31 -3 62 -15 43 -6 -9 -9 -6 -9 12 0 18 -3 21
-9 11 -6 -9 -11 -10 -15 -2 -4 6 -4 11 0 11 4 0 -6 10 -21 22 -26 21 -28 21
-38 3 -10 -19 -10 -19 -17 0 -6 17 -7 17 -13 2z m70 -23 c-3 -3 -12 -4 -19 -1
-8 3 -5 6 6 6 11 1 17 -2 13 -5z"/>
<path d="M5305 3730 c-3 -5 -1 -10 4 -10 6 0 11 5 11 10 0 6 -2 10 -4 10 -3 0
-8 -4 -11 -10z"/>
<path d="M4620 3672 c-54 -59 -63 -73 -53 -83 7 -7 23 6 49 38 22 26 42 50 47
51 4 2 7 8 7 13 0 18 -25 8 -50 -19z"/>
<path d="M5331 3684 c0 -11 3 -14 6 -6 3 7 2 16 -1 19 -3 4 -6 -2 -5 -13z"/>
<path d="M7166 3593 c-6 -14 -5 -15 5 -6 7 7 10 15 7 18 -3 3 -9 -2 -12 -12z"/>
<path d="M7115 3553 c15 -13 20 -31 20 -64 0 -45 1 -47 34 -40 2 1 -2 7 -8 15
-15 18 1 30 28 21 21 -6 75 4 66 13 -3 3 -26 5 -50 3 -46 -3 -47 -2 -49 43 -1
13 -10 20 -31 23 -29 4 -29 4 -10 -14z"/>
<path d="M2963 3529 c2 -23 7 -29 25 -29 28 0 28 7 -3 35 l-24 23 2 -29z"/>
<path d="M4660 3534 c0 -8 5 -12 10 -9 6 3 10 10 10 16 0 5 -4 9 -10 9 -5 0
-10 -7 -10 -16z"/>
<path d="M7276 3512 c-13 -12 -5 -19 19 -14 20 3 25 0 25 -15 0 -11 7 -20 15
-20 23 0 18 25 -7 39 -27 15 -45 18 -52 10z"/>
<path d="M6785 3470 c-3 -5 1 -10 9 -10 9 0 16 5 16 10 0 6 -4 10 -9 10 -6 0
-13 -4 -16 -10z"/>
<path d="M4450 3230 c8 -5 24 -9 35 -9 l20 0 -20 9 c-11 5 -27 9 -35 9 -13 1
-13 0 0 -9z"/>
<path d="M6860 3220 c0 -5 5 -10 11 -10 5 0 7 5 4 10 -3 6 -8 10 -11 10 -2 0
-4 -4 -4 -10z"/>
<path d="M6750 3170 c-13 -8 -12 -10 3 -10 9 0 17 5 17 10 0 12 -1 12 -20 0z"/>
<path d="M4255 3140 c-3 -5 1 -10 9 -10 9 0 16 5 16 10 0 6 -4 10 -9 10 -6 0
-13 -4 -16 -10z"/>
<path d="M4285 3132 c-3 -3 -32 -7 -64 -7 -40 -1 -67 -7 -87 -20 -16 -11 -37
-18 -46 -17 -10 2 -18 -2 -18 -7 0 -6 -9 -11 -20 -11 -11 0 -20 -4 -20 -10 0
-5 -11 -10 -25 -10 -14 0 -25 -4 -25 -10 0 -5 -14 -10 -31 -10 -22 0 -40 -9
-59 -30 -16 -17 -42 -33 -59 -36 -16 -4 -37 -17 -46 -30 -8 -13 -22 -24 -29
-24 -8 0 -21 -12 -31 -26 -19 -30 -13 -74 11 -74 8 0 32 -8 52 -18 30 -14 51
-17 102 -12 37 4 68 3 71 -3 4 -5 17 -6 29 -2 15 5 20 4 16 -4 -5 -8 0 -8 17
-2 13 5 53 8 89 8 37 -1 64 1 62 4 -6 10 40 59 57 59 8 0 32 9 53 20 36 18 40
18 51 3 14 -19 115 -29 115 -12 0 6 9 9 20 6 18 -5 25 4 21 26 -1 5 3 6 9 2 5
-3 10 -13 10 -21 0 -9 11 -14 30 -14 17 0 30 5 30 11 0 6 -8 8 -19 4 -11 -3
-21 0 -24 7 -3 9 5 13 24 13 22 0 29 -5 30 -20 1 -17 2 -17 6 -2 2 9 8 15 13
12 5 -3 7 -12 4 -19 -3 -8 -1 -17 5 -21 6 -3 11 0 11 7 0 10 14 14 48 13 50 0
76 -10 67 -26 -9 -13 60 -11 107 3 22 6 42 18 45 25 3 7 15 14 27 14 15 1 16
3 5 6 -11 2 -15 11 -12 22 3 11 -2 21 -11 24 -9 4 -16 14 -16 23 0 10 -5 14
-15 10 -8 -3 -14 0 -12 7 1 7 -6 11 -15 11 -10 -1 -18 3 -18 10 0 6 -36 29
-80 52 -53 27 -80 36 -80 27 0 -7 -4 -13 -9 -13 -5 0 -7 9 -4 20 3 11 0 20 -6
20 -6 0 -11 -7 -11 -15 0 -8 -4 -15 -10 -15 -5 0 -10 5 -10 10 0 6 -18 10 -40
10 -31 0 -40 4 -40 17 0 15 -2 15 -19 -1 -14 -12 -20 -14 -23 -5 -5 16 -38 21
-38 6 0 -7 -10 -1 -21 13 -14 17 -22 21 -26 13 -2 -7 -11 -13 -19 -13 -9 0
-12 5 -9 10 3 6 -2 10 -12 11 -10 0 -30 2 -45 4 -14 2 -29 1 -33 -3z m140
-252 c-3 -5 -13 -10 -21 -10 -8 0 -12 5 -9 10 3 6 13 10 21 10 8 0 12 -4 9
-10z m445 -10 c0 -5 -4 -10 -10 -10 -5 0 -10 5 -10 10 0 6 5 10 10 10 6 0 10
-4 10 -10z"/>
<path d="M6645 3110 c-3 -5 -1 -10 4 -10 6 0 11 5 11 10 0 6 -2 10 -4 10 -3 0
-8 -4 -11 -10z"/>
<path d="M6782 3111 c4 -13 18 -16 19 -4 0 4 -5 9 -11 12 -7 2 -11 -2 -8 -8z"/>
<path d="M6758 3083 c7 -3 16 -2 19 1 4 3 -2 6 -13 5 -11 0 -14 -3 -6 -6z"/>
<path d="M7121 3074 c0 -11 3 -14 6 -6 3 7 2 16 -1 19 -3 4 -6 -2 -5 -13z"/>
<path d="M6635 3070 c3 -5 8 -10 11 -10 2 0 4 5 4 10 0 6 -5 10 -11 10 -5 0
-7 -4 -4 -10z"/>
<path d="M6530 2644 c0 -8 6 -14 14 -14 8 0 22 -7 31 -17 16 -15 17 -15 13 7
-4 27 -58 50 -58 24z"/>
<path d="M2898 2623 c7 -3 16 -2 19 1 4 3 -2 6 -13 5 -11 0 -14 -3 -6 -6z"/>
<path d="M6340 2157 c0 -3 12 -12 26 -22 15 -9 23 -12 20 -6 -7 11 -46 35 -46
28z"/>
<path d="M6410 2130 c0 -5 5 -10 11 -10 5 0 7 5 4 10 -3 6 -8 10 -11 10 -2 0
-4 -4 -4 -10z"/>
<path d="M185 2040 c3 -5 8 -10 11 -10 2 0 4 5 4 10 0 6 -5 10 -11 10 -5 0 -7
-4 -4 -10z"/>
<path d="M0 2000 c0 -11 5 -20 10 -20 6 0 10 9 10 20 0 11 -4 20 -10 20 -5 0
-10 -9 -10 -20z"/>
<path d="M3550 1980 c0 -5 7 -10 16 -10 8 0 12 5 9 10 -3 6 -10 10 -16 10 -5
0 -9 -4 -9 -10z"/>
<path d="M4050 1751 c0 -5 5 -13 10 -16 6 -3 10 -2 10 4 0 5 -4 13 -10 16 -5
3 -10 2 -10 -4z"/>
<path d="M4693 1753 c-7 -2 -13 -9 -13 -14 0 -14 26 -10 40 6 10 12 10 15 -1
14 -8 0 -20 -3 -26 -6z"/>
<path d="M4070 1671 c0 -12 6 -21 16 -21 9 0 14 7 12 17 -5 25 -28 28 -28 4z"/>
<path d="M4598 1633 c7 -3 16 -2 19 1 4 3 -2 6 -13 5 -11 0 -14 -3 -6 -6z"/>
<path d="M4665 1630 c3 -5 8 -10 11 -10 2 0 4 5 4 10 0 6 -5 10 -11 10 -5 0
-7 -4 -4 -10z"/>
<path d="M4551 1584 c0 -11 3 -14 6 -6 3 7 2 16 -1 19 -3 4 -6 -2 -5 -13z"/>
<path d="M4635 1530 c-3 -5 1 -10 9 -10 9 0 16 5 16 10 0 6 -4 10 -9 10 -6 0
-13 -4 -16 -10z"/>
<path d="M2038 1483 c7 -3 16 -2 19 1 4 3 -2 6 -13 5 -11 0 -14 -3 -6 -6z"/>
<path d="M3270 1105 c0 -8 -4 -15 -9 -15 -12 0 -41 -29 -41 -41 0 -18 25 -8
54 21 15 16 25 33 21 39 -9 16 -25 13 -25 -4z"/>
<path d="M3280 994 c0 -8 5 -12 10 -9 6 4 8 11 5 16 -9 14 -15 11 -15 -7z"/>
<path d="M3167 954 c-8 -8 1 -24 14 -24 5 0 9 7 9 15 0 15 -12 20 -23 9z"/>
<path d="M2955 850 c-3 -5 -1 -10 4 -10 6 0 11 5 11 10 0 6 -2 10 -4 10 -3 0
-8 -4 -11 -10z"/>
<path d="M240 430 c0 -5 5 -10 11 -10 5 0 7 5 4 10 -3 6 -8 10 -11 10 -2 0 -4
-4 -4 -10z"/>
<path d="M1310 430 c0 -5 5 -10 10 -10 6 0 10 5 10 10 0 6 -4 10 -10 10 -5 0
-10 -4 -10 -10z"/>
<path d="M2747 114 c-11 -12 3 -24 29 -24 27 0 32 15 8 24 -20 8 -29 8 -37 0z"/>
<path d="M1851 14 c0 -11 3 -14 6 -6 3 7 2 16 -1 19 -3 4 -6 -2 -5 -13z"/>
</g>
</svg>
