<?xml version="1.0" standalone="no"?>
<!DOCTYPE svg PUBLIC "-//W3C//DTD SVG 20010904//EN"
 "http://www.w3.org/TR/2001/REC-SVG-20010904/DTD/svg10.dtd">
<svg version="1.0" xmlns="http://www.w3.org/2000/svg"
 width="500.000000pt" height="500.000000pt" viewBox="0 0 500.000000 500.000000"
 preserveAspectRatio="xMidYMid meet">

<g transform="translate(0.000000,500.000000) scale(0.100000,-0.100000)"
fill="#000000" stroke="none">
<path d="M4545 4935 c-104 -37 -239 -84 -300 -105 -60 -21 -189 -66 -285 -100
-96 -34 -283 -99 -415 -145 -132 -46 -409 -143 -615 -215 -206 -72 -476 -167
-600 -210 -124 -43 -310 -108 -415 -145 -104 -37 -239 -84 -300 -105 -60 -21
-195 -68 -300 -105 -104 -37 -239 -84 -300 -105 -60 -21 -189 -66 -285 -100
-96 -34 -263 -92 -370 -129 -240 -84 -271 -99 -309 -155 -66 -96 -60 -210 16
-295 39 -42 85 -65 498 -246 142 -62 433 -191 630 -280 77 -34 235 -104 350
-155 116 -51 286 -127 380 -169 l170 -76 76 -170 c42 -94 118 -264 169 -380
51 -115 121 -273 155 -350 62 -137 139 -312 369 -830 100 -225 121 -265 157
-298 85 -76 199 -82 295 -16 56 38 71 69 155 309 37 107 95 274 129 370 34 96
99 283 145 415 46 132 95 272 108 310 14 39 55 153 90 255 119 341 298 852
429 1225 71 204 167 478 213 610 95 274 174 497 270 770 37 105 85 245 108
312 39 119 40 125 28 178 -23 102 -106 178 -211 190 -38 5 -75 -4 -235 -60z
m-1505 -1560 c-448 -448 -818 -815 -822 -815 -4 0 -94 39 -200 86 -106 48
-227 101 -268 119 -198 85 -845 376 -853 384 -5 5 8 14 30 21 21 6 81 27 133
46 52 18 187 65 300 105 113 39 338 118 500 174 162 57 381 134 485 170 105
36 240 84 300 105 61 22 196 69 300 105 105 37 240 84 300 105 61 22 182 64
270 95 88 31 196 69 240 85 44 16 84 29 90 29 5 1 -357 -366 -805 -814z m1089
294 c-34 -96 -88 -250 -121 -344 -33 -93 -97 -278 -143 -410 -46 -132 -123
-350 -170 -485 -48 -135 -92 -263 -99 -285 -7 -22 -56 -161 -109 -310 -52
-148 -127 -362 -166 -475 -40 -113 -87 -248 -105 -300 -19 -52 -40 -112 -46
-133 -7 -22 -16 -35 -21 -30 -7 7 -290 636 -384 853 -18 41 -71 162 -119 268
-47 106 -86 196 -86 200 0 8 1623 1632 1627 1628 1 -1 -25 -81 -58 -177z"/>
</g>
</svg>
